<mxfile host="65bd71144e" pages="3">
    <diagram name="red-light" id="xX7xFCpb49PE-buO3AOD">
        <mxGraphModel dx="834" dy="986" grid="1" gridSize="10" guides="1" tooltips="1" connect="1" arrows="1" fold="1" page="0" pageScale="1" pageWidth="827" pageHeight="1169" math="0" shadow="0">
            <root>
                <mxCell id="FdWtOeu9dLAaitP-vr0H-0"/>
                <mxCell id="FdWtOeu9dLAaitP-vr0H-1" parent="FdWtOeu9dLAaitP-vr0H-0"/>
                <mxCell id="FdWtOeu9dLAaitP-vr0H-10" value="" style="rounded=0;whiteSpace=wrap;html=1;fillColor=#D9D9D9;fontColor=#333333;strokeColor=#A6A6A6;strokeWidth=4;" parent="FdWtOeu9dLAaitP-vr0H-1" vertex="1">
                    <mxGeometry x="142.5" y="-30" width="1350" height="300" as="geometry"/>
                </mxCell>
                <mxCell id="FdWtOeu9dLAaitP-vr0H-11" value="" style="rounded=0;whiteSpace=wrap;html=1;fillColor=#f8cecc;strokeColor=#b85450;strokeWidth=4;" parent="FdWtOeu9dLAaitP-vr0H-1" vertex="1">
                    <mxGeometry x="142.5" y="270" width="1350" height="525" as="geometry"/>
                </mxCell>
                <mxCell id="FdWtOeu9dLAaitP-vr0H-2" value="" style="group;flipH=0;" parent="FdWtOeu9dLAaitP-vr0H-1" vertex="1" connectable="0">
                    <mxGeometry x="120" y="930" width="300" height="600" as="geometry"/>
                </mxCell>
                <mxCell id="FdWtOeu9dLAaitP-vr0H-3" value="" style="rounded=0;whiteSpace=wrap;html=1;fillColor=#DBDBDB;fontColor=#333333;strokeColor=#3D3D3D;flipH=1;" parent="FdWtOeu9dLAaitP-vr0H-2" vertex="1">
                    <mxGeometry width="300" height="600" as="geometry"/>
                </mxCell>
                <mxCell id="FdWtOeu9dLAaitP-vr0H-4" value="" style="rounded=0;whiteSpace=wrap;html=1;fillColor=#DBDBDB;fontColor=#333333;strokeColor=#3D3D3D;flipH=1;" parent="FdWtOeu9dLAaitP-vr0H-2" vertex="1">
                    <mxGeometry x="130" width="170" height="600" as="geometry"/>
                </mxCell>
                <mxCell id="FdWtOeu9dLAaitP-vr0H-5" value="" style="rounded=0;whiteSpace=wrap;html=1;fillColor=#DBDBDB;fontColor=#333333;strokeColor=#3D3D3D;flipH=1;" parent="FdWtOeu9dLAaitP-vr0H-2" vertex="1">
                    <mxGeometry width="130" height="160" as="geometry"/>
                </mxCell>
                <mxCell id="FdWtOeu9dLAaitP-vr0H-6" value="" style="rounded=0;whiteSpace=wrap;html=1;fillColor=#DBDBDB;fontColor=#333333;strokeColor=#3D3D3D;flipH=1;" parent="FdWtOeu9dLAaitP-vr0H-2" vertex="1">
                    <mxGeometry y="220" width="130" height="160" as="geometry"/>
                </mxCell>
                <mxCell id="FdWtOeu9dLAaitP-vr0H-7" value="" style="rounded=0;whiteSpace=wrap;html=1;fillColor=#DBDBDB;fontColor=#333333;strokeColor=#3D3D3D;flipH=1;" parent="FdWtOeu9dLAaitP-vr0H-2" vertex="1">
                    <mxGeometry y="440" width="130" height="160" as="geometry"/>
                </mxCell>
                <mxCell id="FdWtOeu9dLAaitP-vr0H-13" value="" style="rhombus;whiteSpace=wrap;html=1;fillColor=#C99BE0;strokeColor=#9371A3;rotation=90;strokeWidth=3;" parent="FdWtOeu9dLAaitP-vr0H-1" vertex="1">
                    <mxGeometry x="205" y="100" width="120" height="40" as="geometry"/>
                </mxCell>
                <mxCell id="FdWtOeu9dLAaitP-vr0H-14" value="" style="rhombus;whiteSpace=wrap;html=1;fillColor=#C99BE0;strokeColor=#9371A3;rotation=90;strokeWidth=3;" parent="FdWtOeu9dLAaitP-vr0H-1" vertex="1">
                    <mxGeometry x="343" y="100" width="120" height="40" as="geometry"/>
                </mxCell>
                <mxCell id="FdWtOeu9dLAaitP-vr0H-15" value="" style="rhombus;whiteSpace=wrap;html=1;fillColor=#C99BE0;strokeColor=#9371A3;rotation=90;strokeWidth=3;" parent="FdWtOeu9dLAaitP-vr0H-1" vertex="1">
                    <mxGeometry x="481" y="100" width="120" height="40" as="geometry"/>
                </mxCell>
                <mxCell id="FdWtOeu9dLAaitP-vr0H-16" value="" style="rhombus;whiteSpace=wrap;html=1;fillColor=#C99BE0;strokeColor=#9371A3;rotation=90;strokeWidth=3;" parent="FdWtOeu9dLAaitP-vr0H-1" vertex="1">
                    <mxGeometry x="619" y="100" width="120" height="40" as="geometry"/>
                </mxCell>
                <mxCell id="FdWtOeu9dLAaitP-vr0H-17" value="" style="rhombus;whiteSpace=wrap;html=1;fillColor=#C99BE0;strokeColor=#9371A3;rotation=90;strokeWidth=3;" parent="FdWtOeu9dLAaitP-vr0H-1" vertex="1">
                    <mxGeometry x="758" y="100" width="120" height="40" as="geometry"/>
                </mxCell>
                <mxCell id="FdWtOeu9dLAaitP-vr0H-18" value="" style="rhombus;whiteSpace=wrap;html=1;fillColor=#C99BE0;strokeColor=#9371A3;rotation=90;strokeWidth=3;" parent="FdWtOeu9dLAaitP-vr0H-1" vertex="1">
                    <mxGeometry x="896" y="100" width="120" height="40" as="geometry"/>
                </mxCell>
                <mxCell id="FdWtOeu9dLAaitP-vr0H-19" value="" style="rhombus;whiteSpace=wrap;html=1;fillColor=#C99BE0;strokeColor=#9371A3;rotation=90;strokeWidth=3;" parent="FdWtOeu9dLAaitP-vr0H-1" vertex="1">
                    <mxGeometry x="1034" y="100" width="120" height="40" as="geometry"/>
                </mxCell>
                <mxCell id="FdWtOeu9dLAaitP-vr0H-20" value="" style="rhombus;whiteSpace=wrap;html=1;fillColor=#C99BE0;strokeColor=#9371A3;rotation=90;strokeWidth=3;" parent="FdWtOeu9dLAaitP-vr0H-1" vertex="1">
                    <mxGeometry x="1172" y="100" width="120" height="40" as="geometry"/>
                </mxCell>
                <mxCell id="FdWtOeu9dLAaitP-vr0H-21" value="" style="rhombus;whiteSpace=wrap;html=1;fillColor=#C99BE0;strokeColor=#9371A3;rotation=90;strokeWidth=3;" parent="FdWtOeu9dLAaitP-vr0H-1" vertex="1">
                    <mxGeometry x="1310" y="100" width="120" height="40" as="geometry"/>
                </mxCell>
                <mxCell id="FdWtOeu9dLAaitP-vr0H-22" value="" style="rhombus;whiteSpace=wrap;html=1;fillColor=#C99BE0;strokeColor=#9371A3;strokeWidth=3;" parent="FdWtOeu9dLAaitP-vr0H-1" vertex="1">
                    <mxGeometry x="1151.5" y="447" width="120" height="40" as="geometry"/>
                </mxCell>
                <mxCell id="FdWtOeu9dLAaitP-vr0H-23" value="" style="rhombus;whiteSpace=wrap;html=1;fillColor=#C99BE0;strokeColor=#9371A3;strokeWidth=3;" parent="FdWtOeu9dLAaitP-vr0H-1" vertex="1">
                    <mxGeometry x="955" y="447" width="120" height="40" as="geometry"/>
                </mxCell>
                <mxCell id="FdWtOeu9dLAaitP-vr0H-24" value="" style="rhombus;whiteSpace=wrap;html=1;fillColor=#C99BE0;strokeColor=#9371A3;strokeWidth=3;" parent="FdWtOeu9dLAaitP-vr0H-1" vertex="1">
                    <mxGeometry x="758" y="447" width="120" height="40" as="geometry"/>
                </mxCell>
                <mxCell id="FdWtOeu9dLAaitP-vr0H-25" value="" style="rhombus;whiteSpace=wrap;html=1;fillColor=#C99BE0;strokeColor=#9371A3;strokeWidth=3;" parent="FdWtOeu9dLAaitP-vr0H-1" vertex="1">
                    <mxGeometry x="561" y="447" width="120" height="40" as="geometry"/>
                </mxCell>
                <mxCell id="FdWtOeu9dLAaitP-vr0H-26" value="" style="rhombus;whiteSpace=wrap;html=1;fillColor=#C99BE0;strokeColor=#9371A3;strokeWidth=3;" parent="FdWtOeu9dLAaitP-vr0H-1" vertex="1">
                    <mxGeometry x="364.5" y="447" width="120" height="40" as="geometry"/>
                </mxCell>
                <mxCell id="FdWtOeu9dLAaitP-vr0H-27" value="" style="rhombus;whiteSpace=wrap;html=1;fillColor=#C99BE0;strokeColor=#9371A3;strokeWidth=3;" parent="FdWtOeu9dLAaitP-vr0H-1" vertex="1">
                    <mxGeometry x="1151.5" y="640" width="120" height="40" as="geometry"/>
                </mxCell>
                <mxCell id="FdWtOeu9dLAaitP-vr0H-28" value="" style="rhombus;whiteSpace=wrap;html=1;fillColor=#C99BE0;strokeColor=#9371A3;strokeWidth=3;" parent="FdWtOeu9dLAaitP-vr0H-1" vertex="1">
                    <mxGeometry x="955" y="640" width="120" height="40" as="geometry"/>
                </mxCell>
                <mxCell id="FdWtOeu9dLAaitP-vr0H-29" value="" style="rhombus;whiteSpace=wrap;html=1;fillColor=#C99BE0;strokeColor=#9371A3;strokeWidth=3;" parent="FdWtOeu9dLAaitP-vr0H-1" vertex="1">
                    <mxGeometry x="758" y="640" width="120" height="40" as="geometry"/>
                </mxCell>
                <mxCell id="FdWtOeu9dLAaitP-vr0H-30" value="" style="rhombus;whiteSpace=wrap;html=1;fillColor=#C99BE0;strokeColor=#9371A3;strokeWidth=3;" parent="FdWtOeu9dLAaitP-vr0H-1" vertex="1">
                    <mxGeometry x="561" y="640" width="120" height="40" as="geometry"/>
                </mxCell>
                <mxCell id="FdWtOeu9dLAaitP-vr0H-31" value="" style="rhombus;whiteSpace=wrap;html=1;fillColor=#C99BE0;strokeColor=#9371A3;strokeWidth=3;" parent="FdWtOeu9dLAaitP-vr0H-1" vertex="1">
                    <mxGeometry x="364.5" y="640" width="120" height="40" as="geometry"/>
                </mxCell>
                <mxCell id="FdWtOeu9dLAaitP-vr0H-32" value="" style="rhombus;whiteSpace=wrap;html=1;fillColor=#C99BE0;strokeColor=#9371A3;strokeWidth=3;" parent="FdWtOeu9dLAaitP-vr0H-1" vertex="1">
                    <mxGeometry x="1249" y="543" width="120" height="40" as="geometry"/>
                </mxCell>
                <mxCell id="FdWtOeu9dLAaitP-vr0H-33" value="" style="rhombus;whiteSpace=wrap;html=1;fillColor=#C99BE0;strokeColor=#9371A3;strokeWidth=3;" parent="FdWtOeu9dLAaitP-vr0H-1" vertex="1">
                    <mxGeometry x="1052" y="543" width="120" height="40" as="geometry"/>
                </mxCell>
                <mxCell id="FdWtOeu9dLAaitP-vr0H-34" value="" style="rhombus;whiteSpace=wrap;html=1;fillColor=#C99BE0;strokeColor=#9371A3;strokeWidth=3;" parent="FdWtOeu9dLAaitP-vr0H-1" vertex="1">
                    <mxGeometry x="855" y="543" width="120" height="40" as="geometry"/>
                </mxCell>
                <mxCell id="FdWtOeu9dLAaitP-vr0H-35" value="" style="rhombus;whiteSpace=wrap;html=1;fillColor=#C99BE0;strokeColor=#9371A3;strokeWidth=3;" parent="FdWtOeu9dLAaitP-vr0H-1" vertex="1">
                    <mxGeometry x="659" y="543" width="120" height="40" as="geometry"/>
                </mxCell>
                <mxCell id="FdWtOeu9dLAaitP-vr0H-36" value="" style="rhombus;whiteSpace=wrap;html=1;fillColor=#C99BE0;strokeColor=#9371A3;strokeWidth=3;" parent="FdWtOeu9dLAaitP-vr0H-1" vertex="1">
                    <mxGeometry x="462" y="543" width="120" height="40" as="geometry"/>
                </mxCell>
                <mxCell id="FdWtOeu9dLAaitP-vr0H-37" value="" style="rhombus;whiteSpace=wrap;html=1;fillColor=#C99BE0;strokeColor=#9371A3;strokeWidth=3;" parent="FdWtOeu9dLAaitP-vr0H-1" vertex="1">
                    <mxGeometry x="265" y="543" width="120" height="40" as="geometry"/>
                </mxCell>
            </root>
        </mxGraphModel>
    </diagram>
    <diagram name="blue" id="QJI7vVDqlJhHL9Uklw7K">
        <mxGraphModel dx="594" dy="986" grid="1" gridSize="10" guides="1" tooltips="1" connect="1" arrows="1" fold="1" page="0" pageScale="1" pageWidth="827" pageHeight="1169" background="none" math="0" shadow="0">
            <root>
                <mxCell id="SqTnk0QD3kuAFNCU4yo0-0"/>
                <mxCell id="SqTnk0QD3kuAFNCU4yo0-1" parent="SqTnk0QD3kuAFNCU4yo0-0"/>
                <mxCell id="SqTnk0QD3kuAFNCU4yo0-2" value="" style="rounded=0;whiteSpace=wrap;html=1;fillColor=#404040;fontColor=#333333;strokeColor=#8A8A8A;strokeWidth=3;" parent="SqTnk0QD3kuAFNCU4yo0-1" vertex="1">
                    <mxGeometry x="120" y="-30" width="1350" height="300" as="geometry"/>
                </mxCell>
                <mxCell id="SqTnk0QD3kuAFNCU4yo0-3" value="" style="rounded=0;whiteSpace=wrap;html=1;fillColor=#190E78;strokeColor=#2800F2;strokeWidth=4;movable=0;resizable=0;rotatable=0;deletable=0;editable=0;connectable=0;" parent="SqTnk0QD3kuAFNCU4yo0-1" vertex="1">
                    <mxGeometry x="120" y="270" width="1350" height="525" as="geometry"/>
                </mxCell>
                <mxCell id="SqTnk0QD3kuAFNCU4yo0-10" value="" style="rhombus;whiteSpace=wrap;html=1;fillColor=#5A45E0;strokeColor=#5F0D78;rotation=90;strokeWidth=3;" parent="SqTnk0QD3kuAFNCU4yo0-1" vertex="1">
                    <mxGeometry x="1287.5" y="100" width="120" height="40" as="geometry"/>
                </mxCell>
                <mxCell id="SqTnk0QD3kuAFNCU4yo0-11" value="" style="rhombus;whiteSpace=wrap;html=1;fillColor=#5A45E0;strokeColor=#5F0D78;rotation=90;strokeWidth=3;" parent="SqTnk0QD3kuAFNCU4yo0-1" vertex="1">
                    <mxGeometry x="1149.5" y="100" width="120" height="40" as="geometry"/>
                </mxCell>
                <mxCell id="SqTnk0QD3kuAFNCU4yo0-12" value="" style="rhombus;whiteSpace=wrap;html=1;fillColor=#5A45E0;strokeColor=#5F0D78;rotation=90;strokeWidth=3;" parent="SqTnk0QD3kuAFNCU4yo0-1" vertex="1">
                    <mxGeometry x="1011.5" y="100" width="120" height="40" as="geometry"/>
                </mxCell>
                <mxCell id="SqTnk0QD3kuAFNCU4yo0-13" value="" style="rhombus;whiteSpace=wrap;html=1;fillColor=#5A45E0;strokeColor=#5F0D78;rotation=90;strokeWidth=3;" parent="SqTnk0QD3kuAFNCU4yo0-1" vertex="1">
                    <mxGeometry x="873.5" y="100" width="120" height="40" as="geometry"/>
                </mxCell>
                <mxCell id="SqTnk0QD3kuAFNCU4yo0-14" value="" style="rhombus;whiteSpace=wrap;html=1;fillColor=#5A45E0;strokeColor=#5F0D78;rotation=90;strokeWidth=3;" parent="SqTnk0QD3kuAFNCU4yo0-1" vertex="1">
                    <mxGeometry x="734.5" y="100" width="120" height="40" as="geometry"/>
                </mxCell>
                <mxCell id="SqTnk0QD3kuAFNCU4yo0-15" value="" style="rhombus;whiteSpace=wrap;html=1;fillColor=#5A45E0;strokeColor=#5F0D78;rotation=90;strokeWidth=3;" parent="SqTnk0QD3kuAFNCU4yo0-1" vertex="1">
                    <mxGeometry x="596.5" y="100" width="120" height="40" as="geometry"/>
                </mxCell>
                <mxCell id="SqTnk0QD3kuAFNCU4yo0-16" value="" style="rhombus;whiteSpace=wrap;html=1;fillColor=#5A45E0;strokeColor=#5F0D78;rotation=90;strokeWidth=3;" parent="SqTnk0QD3kuAFNCU4yo0-1" vertex="1">
                    <mxGeometry x="458.5" y="100" width="120" height="40" as="geometry"/>
                </mxCell>
                <mxCell id="SqTnk0QD3kuAFNCU4yo0-17" value="" style="rhombus;whiteSpace=wrap;html=1;fillColor=#5A45E0;strokeColor=#5F0D78;rotation=90;strokeWidth=3;" parent="SqTnk0QD3kuAFNCU4yo0-1" vertex="1">
                    <mxGeometry x="320.5" y="100" width="120" height="40" as="geometry"/>
                </mxCell>
                <mxCell id="SqTnk0QD3kuAFNCU4yo0-18" value="" style="rhombus;whiteSpace=wrap;html=1;fillColor=#5A45E0;strokeColor=#5F0D78;rotation=90;strokeWidth=3;" parent="SqTnk0QD3kuAFNCU4yo0-1" vertex="1">
                    <mxGeometry x="182.5" y="100" width="120" height="40" as="geometry"/>
                </mxCell>
                <mxCell id="SqTnk0QD3kuAFNCU4yo0-19" value="" style="rhombus;whiteSpace=wrap;html=1;fillColor=#5A45E0;strokeColor=#5F0D78;strokeWidth=3;" parent="SqTnk0QD3kuAFNCU4yo0-1" vertex="1">
                    <mxGeometry x="341" y="447" width="120" height="40" as="geometry"/>
                </mxCell>
                <mxCell id="SqTnk0QD3kuAFNCU4yo0-20" value="" style="rhombus;whiteSpace=wrap;html=1;fillColor=#5A45E0;strokeColor=#5F0D78;strokeWidth=3;" parent="SqTnk0QD3kuAFNCU4yo0-1" vertex="1">
                    <mxGeometry x="537.5" y="447" width="120" height="40" as="geometry"/>
                </mxCell>
                <mxCell id="SqTnk0QD3kuAFNCU4yo0-21" value="" style="rhombus;whiteSpace=wrap;html=1;fillColor=#5A45E0;strokeColor=#5F0D78;strokeWidth=3;" parent="SqTnk0QD3kuAFNCU4yo0-1" vertex="1">
                    <mxGeometry x="734.5" y="447" width="120" height="40" as="geometry"/>
                </mxCell>
                <mxCell id="SqTnk0QD3kuAFNCU4yo0-22" value="" style="rhombus;whiteSpace=wrap;html=1;fillColor=#5A45E0;strokeColor=#5F0D78;strokeWidth=3;" parent="SqTnk0QD3kuAFNCU4yo0-1" vertex="1">
                    <mxGeometry x="931.5" y="447" width="120" height="40" as="geometry"/>
                </mxCell>
                <mxCell id="SqTnk0QD3kuAFNCU4yo0-23" value="" style="rhombus;whiteSpace=wrap;html=1;fillColor=#5A45E0;strokeColor=#5F0D78;strokeWidth=3;" parent="SqTnk0QD3kuAFNCU4yo0-1" vertex="1">
                    <mxGeometry x="1128" y="447" width="120" height="40" as="geometry"/>
                </mxCell>
                <mxCell id="SqTnk0QD3kuAFNCU4yo0-24" value="" style="rhombus;whiteSpace=wrap;html=1;fillColor=#5A45E0;strokeColor=#5F0D78;strokeWidth=3;" parent="SqTnk0QD3kuAFNCU4yo0-1" vertex="1">
                    <mxGeometry x="341" y="640" width="120" height="40" as="geometry"/>
                </mxCell>
                <mxCell id="SqTnk0QD3kuAFNCU4yo0-25" value="" style="rhombus;whiteSpace=wrap;html=1;fillColor=#5A45E0;strokeColor=#5F0D78;strokeWidth=3;" parent="SqTnk0QD3kuAFNCU4yo0-1" vertex="1">
                    <mxGeometry x="537.5" y="640" width="120" height="40" as="geometry"/>
                </mxCell>
                <mxCell id="SqTnk0QD3kuAFNCU4yo0-26" value="" style="rhombus;whiteSpace=wrap;html=1;fillColor=#5A45E0;strokeColor=#5F0D78;strokeWidth=3;" parent="SqTnk0QD3kuAFNCU4yo0-1" vertex="1">
                    <mxGeometry x="734.5" y="640" width="120" height="40" as="geometry"/>
                </mxCell>
                <mxCell id="SqTnk0QD3kuAFNCU4yo0-27" value="" style="rhombus;whiteSpace=wrap;html=1;fillColor=#5A45E0;strokeColor=#5F0D78;strokeWidth=3;" parent="SqTnk0QD3kuAFNCU4yo0-1" vertex="1">
                    <mxGeometry x="931.5" y="640" width="120" height="40" as="geometry"/>
                </mxCell>
                <mxCell id="SqTnk0QD3kuAFNCU4yo0-28" value="" style="rhombus;whiteSpace=wrap;html=1;fillColor=#5A45E0;strokeColor=#5F0D78;strokeWidth=3;" parent="SqTnk0QD3kuAFNCU4yo0-1" vertex="1">
                    <mxGeometry x="1128" y="640" width="120" height="40" as="geometry"/>
                </mxCell>
                <mxCell id="SqTnk0QD3kuAFNCU4yo0-29" value="" style="rhombus;whiteSpace=wrap;html=1;fillColor=#5A45E0;strokeColor=#5F0D78;strokeWidth=3;" parent="SqTnk0QD3kuAFNCU4yo0-1" vertex="1">
                    <mxGeometry x="243.5" y="543" width="120" height="40" as="geometry"/>
                </mxCell>
                <mxCell id="SqTnk0QD3kuAFNCU4yo0-30" value="" style="rhombus;whiteSpace=wrap;html=1;fillColor=#5A45E0;strokeColor=#5F0D78;strokeWidth=3;" parent="SqTnk0QD3kuAFNCU4yo0-1" vertex="1">
                    <mxGeometry x="440.5" y="543" width="120" height="40" as="geometry"/>
                </mxCell>
                <mxCell id="SqTnk0QD3kuAFNCU4yo0-31" value="" style="rhombus;whiteSpace=wrap;html=1;fillColor=#5A45E0;strokeColor=#5F0D78;strokeWidth=3;" parent="SqTnk0QD3kuAFNCU4yo0-1" vertex="1">
                    <mxGeometry x="637.5" y="543" width="120" height="40" as="geometry"/>
                </mxCell>
                <mxCell id="SqTnk0QD3kuAFNCU4yo0-32" value="" style="rhombus;whiteSpace=wrap;html=1;fillColor=#5A45E0;strokeColor=#5F0D78;strokeWidth=3;" parent="SqTnk0QD3kuAFNCU4yo0-1" vertex="1">
                    <mxGeometry x="833.5" y="543" width="120" height="40" as="geometry"/>
                </mxCell>
                <mxCell id="SqTnk0QD3kuAFNCU4yo0-33" value="" style="rhombus;whiteSpace=wrap;html=1;fillColor=#5A45E0;strokeColor=#5F0D78;strokeWidth=3;" parent="SqTnk0QD3kuAFNCU4yo0-1" vertex="1">
                    <mxGeometry x="1030.5" y="543" width="120" height="40" as="geometry"/>
                </mxCell>
                <mxCell id="SqTnk0QD3kuAFNCU4yo0-34" value="" style="rhombus;whiteSpace=wrap;html=1;fillColor=#5A45E0;strokeColor=#5F0D78;strokeWidth=3;" parent="SqTnk0QD3kuAFNCU4yo0-1" vertex="1">
                    <mxGeometry x="1227.5" y="543" width="120" height="40" as="geometry"/>
                </mxCell>
                <mxCell id="SqTnk0QD3kuAFNCU4yo0-5" value="" style="rounded=0;whiteSpace=wrap;html=1;fillColor=#404040;fontColor=#333333;strokeColor=#CCCCCC;flipH=1;strokeWidth=5;" parent="SqTnk0QD3kuAFNCU4yo0-1" vertex="1">
                    <mxGeometry x="1192.5" y="930" width="300" height="600" as="geometry"/>
                </mxCell>
                <mxCell id="SqTnk0QD3kuAFNCU4yo0-6" value="" style="rounded=0;whiteSpace=wrap;html=1;fillColor=#404040;fontColor=#333333;strokeColor=#CCCCCC;flipH=1;strokeWidth=5;" parent="SqTnk0QD3kuAFNCU4yo0-1" vertex="1">
                    <mxGeometry x="1192.5" y="930" width="170" height="600" as="geometry"/>
                </mxCell>
                <mxCell id="SqTnk0QD3kuAFNCU4yo0-7" value="" style="rounded=0;whiteSpace=wrap;html=1;fillColor=#404040;fontColor=#333333;strokeColor=#CCCCCC;flipH=1;strokeWidth=5;" parent="SqTnk0QD3kuAFNCU4yo0-1" vertex="1">
                    <mxGeometry x="1362.5" y="930" width="130" height="160" as="geometry"/>
                </mxCell>
                <mxCell id="SqTnk0QD3kuAFNCU4yo0-8" value="" style="rounded=0;whiteSpace=wrap;html=1;fillColor=#404040;fontColor=#333333;strokeColor=#CCCCCC;flipH=1;strokeWidth=5;" parent="SqTnk0QD3kuAFNCU4yo0-1" vertex="1">
                    <mxGeometry x="1362.5" y="1150" width="130" height="160" as="geometry"/>
                </mxCell>
                <mxCell id="SqTnk0QD3kuAFNCU4yo0-9" value="" style="rounded=0;whiteSpace=wrap;html=1;fillColor=#404040;fontColor=#333333;strokeColor=#CCCCCC;flipH=1;strokeWidth=5;" parent="SqTnk0QD3kuAFNCU4yo0-1" vertex="1">
                    <mxGeometry x="1362.5" y="1370" width="130" height="160" as="geometry"/>
                </mxCell>
                <mxCell id="Mhv9RiK7-RcAO2Y5VuC--9" value="" style="rounded=0;whiteSpace=wrap;html=1;fillColor=#404040;fontColor=#333333;strokeColor=#8A8A8A;strokeWidth=3;" parent="SqTnk0QD3kuAFNCU4yo0-1" vertex="1">
                    <mxGeometry x="120" y="-30" width="1350" height="300" as="geometry"/>
                </mxCell>
                <mxCell id="Mhv9RiK7-RcAO2Y5VuC--10" value="" style="rounded=0;whiteSpace=wrap;html=1;fillColor=#190E78;strokeColor=#2800F2;strokeWidth=4;" parent="SqTnk0QD3kuAFNCU4yo0-1" vertex="1">
                    <mxGeometry x="120" y="270" width="1350" height="525" as="geometry"/>
                </mxCell>
                <mxCell id="Mhv9RiK7-RcAO2Y5VuC--11" value="" style="group;flipH=0;fillColor=none;strokeColor=none;strokeWidth=5;" parent="SqTnk0QD3kuAFNCU4yo0-1" vertex="1" connectable="0">
                    <mxGeometry x="97.5" y="930" width="300" height="600" as="geometry"/>
                </mxCell>
                <mxCell id="Mhv9RiK7-RcAO2Y5VuC--12" value="" style="rounded=0;whiteSpace=wrap;html=1;fillColor=none;fontColor=#333333;strokeColor=none;flipH=1;strokeWidth=5;" parent="Mhv9RiK7-RcAO2Y5VuC--11" vertex="1">
                    <mxGeometry width="300" height="600" as="geometry"/>
                </mxCell>
                <mxCell id="Mhv9RiK7-RcAO2Y5VuC--13" value="" style="rounded=0;whiteSpace=wrap;html=1;fillColor=none;fontColor=#333333;strokeColor=none;flipH=1;strokeWidth=5;" parent="Mhv9RiK7-RcAO2Y5VuC--11" vertex="1">
                    <mxGeometry x="130" width="170" height="600" as="geometry"/>
                </mxCell>
                <mxCell id="Mhv9RiK7-RcAO2Y5VuC--14" value="" style="rounded=0;whiteSpace=wrap;html=1;fillColor=none;fontColor=#333333;strokeColor=none;flipH=1;strokeWidth=5;" parent="Mhv9RiK7-RcAO2Y5VuC--11" vertex="1">
                    <mxGeometry width="130" height="160" as="geometry"/>
                </mxCell>
                <mxCell id="Mhv9RiK7-RcAO2Y5VuC--15" value="" style="rounded=0;whiteSpace=wrap;html=1;fillColor=none;fontColor=#333333;strokeColor=none;flipH=1;strokeWidth=5;" parent="Mhv9RiK7-RcAO2Y5VuC--11" vertex="1">
                    <mxGeometry y="220" width="130" height="160" as="geometry"/>
                </mxCell>
                <mxCell id="Mhv9RiK7-RcAO2Y5VuC--16" value="" style="rounded=0;whiteSpace=wrap;html=1;fillColor=none;fontColor=#333333;strokeColor=none;flipH=1;strokeWidth=5;" parent="Mhv9RiK7-RcAO2Y5VuC--11" vertex="1">
                    <mxGeometry y="440" width="130" height="160" as="geometry"/>
                </mxCell>
                <mxCell id="Mhv9RiK7-RcAO2Y5VuC--17" value="" style="rhombus;whiteSpace=wrap;html=1;fillColor=#5A45E0;strokeColor=#5F0D78;rotation=90;strokeWidth=3;" parent="SqTnk0QD3kuAFNCU4yo0-1" vertex="1">
                    <mxGeometry x="182.5" y="100" width="120" height="40" as="geometry"/>
                </mxCell>
                <mxCell id="Mhv9RiK7-RcAO2Y5VuC--18" value="" style="rhombus;whiteSpace=wrap;html=1;fillColor=#5A45E0;strokeColor=#5F0D78;rotation=90;strokeWidth=3;" parent="SqTnk0QD3kuAFNCU4yo0-1" vertex="1">
                    <mxGeometry x="320.5" y="100" width="120" height="40" as="geometry"/>
                </mxCell>
                <mxCell id="Mhv9RiK7-RcAO2Y5VuC--19" value="" style="rhombus;whiteSpace=wrap;html=1;fillColor=#5A45E0;strokeColor=#5F0D78;rotation=90;strokeWidth=3;" parent="SqTnk0QD3kuAFNCU4yo0-1" vertex="1">
                    <mxGeometry x="458.5" y="100" width="120" height="40" as="geometry"/>
                </mxCell>
                <mxCell id="Mhv9RiK7-RcAO2Y5VuC--20" value="" style="rhombus;whiteSpace=wrap;html=1;fillColor=#5A45E0;strokeColor=#5F0D78;rotation=90;strokeWidth=3;" parent="SqTnk0QD3kuAFNCU4yo0-1" vertex="1">
                    <mxGeometry x="596.5" y="100" width="120" height="40" as="geometry"/>
                </mxCell>
                <mxCell id="Mhv9RiK7-RcAO2Y5VuC--21" value="" style="rhombus;whiteSpace=wrap;html=1;fillColor=#5A45E0;strokeColor=#5F0D78;rotation=90;strokeWidth=3;" parent="SqTnk0QD3kuAFNCU4yo0-1" vertex="1">
                    <mxGeometry x="735.5" y="100" width="120" height="40" as="geometry"/>
                </mxCell>
                <mxCell id="Mhv9RiK7-RcAO2Y5VuC--22" value="" style="rhombus;whiteSpace=wrap;html=1;fillColor=#5A45E0;strokeColor=#5F0D78;rotation=90;strokeWidth=3;" parent="SqTnk0QD3kuAFNCU4yo0-1" vertex="1">
                    <mxGeometry x="873.5" y="100" width="120" height="40" as="geometry"/>
                </mxCell>
                <mxCell id="Mhv9RiK7-RcAO2Y5VuC--23" value="" style="rhombus;whiteSpace=wrap;html=1;fillColor=#5A45E0;strokeColor=#5F0D78;rotation=90;strokeWidth=3;" parent="SqTnk0QD3kuAFNCU4yo0-1" vertex="1">
                    <mxGeometry x="1011.5" y="100" width="120" height="40" as="geometry"/>
                </mxCell>
                <mxCell id="Mhv9RiK7-RcAO2Y5VuC--24" value="" style="rhombus;whiteSpace=wrap;html=1;fillColor=#5A45E0;strokeColor=#5F0D78;rotation=90;strokeWidth=3;" parent="SqTnk0QD3kuAFNCU4yo0-1" vertex="1">
                    <mxGeometry x="1149.5" y="100" width="120" height="40" as="geometry"/>
                </mxCell>
                <mxCell id="Mhv9RiK7-RcAO2Y5VuC--25" value="" style="rhombus;whiteSpace=wrap;html=1;fillColor=#5A45E0;strokeColor=#5F0D78;rotation=90;strokeWidth=3;" parent="SqTnk0QD3kuAFNCU4yo0-1" vertex="1">
                    <mxGeometry x="1287.5" y="100" width="120" height="40" as="geometry"/>
                </mxCell>
                <mxCell id="Mhv9RiK7-RcAO2Y5VuC--26" value="" style="rhombus;whiteSpace=wrap;html=1;fillColor=#5A45E0;strokeColor=#5F0D78;strokeWidth=3;" parent="SqTnk0QD3kuAFNCU4yo0-1" vertex="1">
                    <mxGeometry x="1129" y="447" width="120" height="40" as="geometry"/>
                </mxCell>
                <mxCell id="Mhv9RiK7-RcAO2Y5VuC--27" value="" style="rhombus;whiteSpace=wrap;html=1;fillColor=#5A45E0;strokeColor=#5F0D78;strokeWidth=3;" parent="SqTnk0QD3kuAFNCU4yo0-1" vertex="1">
                    <mxGeometry x="932.5" y="447" width="120" height="40" as="geometry"/>
                </mxCell>
                <mxCell id="Mhv9RiK7-RcAO2Y5VuC--28" value="" style="rhombus;whiteSpace=wrap;html=1;fillColor=#5A45E0;strokeColor=#5F0D78;strokeWidth=3;" parent="SqTnk0QD3kuAFNCU4yo0-1" vertex="1">
                    <mxGeometry x="735.5" y="447" width="120" height="40" as="geometry"/>
                </mxCell>
                <mxCell id="Mhv9RiK7-RcAO2Y5VuC--29" value="" style="rhombus;whiteSpace=wrap;html=1;fillColor=#5A45E0;strokeColor=#5F0D78;strokeWidth=3;" parent="SqTnk0QD3kuAFNCU4yo0-1" vertex="1">
                    <mxGeometry x="538.5" y="447" width="120" height="40" as="geometry"/>
                </mxCell>
                <mxCell id="Mhv9RiK7-RcAO2Y5VuC--30" value="" style="rhombus;whiteSpace=wrap;html=1;fillColor=#5A45E0;strokeColor=#5F0D78;strokeWidth=3;" parent="SqTnk0QD3kuAFNCU4yo0-1" vertex="1">
                    <mxGeometry x="342" y="447" width="120" height="40" as="geometry"/>
                </mxCell>
                <mxCell id="Mhv9RiK7-RcAO2Y5VuC--31" value="" style="rhombus;whiteSpace=wrap;html=1;fillColor=#5A45E0;strokeColor=#5F0D78;strokeWidth=3;" parent="SqTnk0QD3kuAFNCU4yo0-1" vertex="1">
                    <mxGeometry x="1129" y="640" width="120" height="40" as="geometry"/>
                </mxCell>
                <mxCell id="Mhv9RiK7-RcAO2Y5VuC--32" value="" style="rhombus;whiteSpace=wrap;html=1;fillColor=#5A45E0;strokeColor=#5F0D78;strokeWidth=3;" parent="SqTnk0QD3kuAFNCU4yo0-1" vertex="1">
                    <mxGeometry x="932.5" y="640" width="120" height="40" as="geometry"/>
                </mxCell>
                <mxCell id="Mhv9RiK7-RcAO2Y5VuC--33" value="" style="rhombus;whiteSpace=wrap;html=1;fillColor=#5A45E0;strokeColor=#5F0D78;strokeWidth=3;" parent="SqTnk0QD3kuAFNCU4yo0-1" vertex="1">
                    <mxGeometry x="735.5" y="640" width="120" height="40" as="geometry"/>
                </mxCell>
                <mxCell id="Mhv9RiK7-RcAO2Y5VuC--34" value="" style="rhombus;whiteSpace=wrap;html=1;fillColor=#5A45E0;strokeColor=#5F0D78;strokeWidth=3;" parent="SqTnk0QD3kuAFNCU4yo0-1" vertex="1">
                    <mxGeometry x="538.5" y="640" width="120" height="40" as="geometry"/>
                </mxCell>
                <mxCell id="Mhv9RiK7-RcAO2Y5VuC--35" value="" style="rhombus;whiteSpace=wrap;html=1;fillColor=#5A45E0;strokeColor=#5F0D78;strokeWidth=3;" parent="SqTnk0QD3kuAFNCU4yo0-1" vertex="1">
                    <mxGeometry x="342" y="640" width="120" height="40" as="geometry"/>
                </mxCell>
                <mxCell id="Mhv9RiK7-RcAO2Y5VuC--36" value="" style="rhombus;whiteSpace=wrap;html=1;fillColor=#5A45E0;strokeColor=#5F0D78;strokeWidth=3;" parent="SqTnk0QD3kuAFNCU4yo0-1" vertex="1">
                    <mxGeometry x="1226.5" y="543" width="120" height="40" as="geometry"/>
                </mxCell>
                <mxCell id="Mhv9RiK7-RcAO2Y5VuC--37" value="" style="rhombus;whiteSpace=wrap;html=1;fillColor=#5A45E0;strokeColor=#5F0D78;strokeWidth=3;" parent="SqTnk0QD3kuAFNCU4yo0-1" vertex="1">
                    <mxGeometry x="1029.5" y="543" width="120" height="40" as="geometry"/>
                </mxCell>
                <mxCell id="Mhv9RiK7-RcAO2Y5VuC--38" value="" style="rhombus;whiteSpace=wrap;html=1;fillColor=#5A45E0;strokeColor=#5F0D78;strokeWidth=3;" parent="SqTnk0QD3kuAFNCU4yo0-1" vertex="1">
                    <mxGeometry x="832.5" y="543" width="120" height="40" as="geometry"/>
                </mxCell>
                <mxCell id="Mhv9RiK7-RcAO2Y5VuC--39" value="" style="rhombus;whiteSpace=wrap;html=1;fillColor=#5A45E0;strokeColor=#5F0D78;strokeWidth=3;" parent="SqTnk0QD3kuAFNCU4yo0-1" vertex="1">
                    <mxGeometry x="636.5" y="543" width="120" height="40" as="geometry"/>
                </mxCell>
                <mxCell id="Mhv9RiK7-RcAO2Y5VuC--40" value="" style="rhombus;whiteSpace=wrap;html=1;fillColor=#5A45E0;strokeColor=#5F0D78;strokeWidth=3;" parent="SqTnk0QD3kuAFNCU4yo0-1" vertex="1">
                    <mxGeometry x="439.5" y="543" width="120" height="40" as="geometry"/>
                </mxCell>
                <mxCell id="Mhv9RiK7-RcAO2Y5VuC--41" value="" style="rhombus;whiteSpace=wrap;html=1;fillColor=#5A45E0;strokeColor=#5F0D78;strokeWidth=3;" parent="SqTnk0QD3kuAFNCU4yo0-1" vertex="1">
                    <mxGeometry x="242.5" y="543" width="120" height="40" as="geometry"/>
                </mxCell>
            </root>
        </mxGraphModel>
    </diagram>
    <diagram name="red-inverse" id="s-eiiyX1VpR5WT2UNW8H">
        <mxGraphModel dx="594" dy="986" grid="1" gridSize="10" guides="1" tooltips="1" connect="1" arrows="1" fold="1" page="0" pageScale="1" pageWidth="827" pageHeight="1169" background="none" math="0" shadow="0">
            <root>
                <mxCell id="Y4SgJSNF3iMmkC4_ajjD-0"/>
                <mxCell id="Y4SgJSNF3iMmkC4_ajjD-1" parent="Y4SgJSNF3iMmkC4_ajjD-0"/>
                <mxCell id="Y4SgJSNF3iMmkC4_ajjD-34" value="" style="rounded=0;whiteSpace=wrap;html=1;fillColor=#404040;fontColor=#333333;strokeColor=#8A8A8A;strokeWidth=3;" vertex="1" parent="Y4SgJSNF3iMmkC4_ajjD-1">
                    <mxGeometry x="120" y="-30" width="1350" height="300" as="geometry"/>
                </mxCell>
                <mxCell id="lIfmLeLMDq-7EVnR6lKb-0" value="" style="rounded=0;whiteSpace=wrap;html=1;fillColor=#990B06;strokeColor=#BD0E08;strokeWidth=4;" vertex="1" parent="Y4SgJSNF3iMmkC4_ajjD-1">
                    <mxGeometry x="120" y="270" width="1350" height="525" as="geometry"/>
                </mxCell>
                <mxCell id="Y4SgJSNF3iMmkC4_ajjD-2" value="" style="rounded=0;whiteSpace=wrap;html=1;fillColor=#404040;fontColor=#333333;strokeColor=#8A8A8A;strokeWidth=3;" vertex="1" parent="Y4SgJSNF3iMmkC4_ajjD-1">
                    <mxGeometry x="120" y="-30" width="1350" height="300" as="geometry"/>
                </mxCell>
                <mxCell id="Y4SgJSNF3iMmkC4_ajjD-4" value="" style="rhombus;whiteSpace=wrap;html=1;fillColor=#5A45E0;strokeColor=#5F0D78;rotation=90;strokeWidth=3;" vertex="1" parent="Y4SgJSNF3iMmkC4_ajjD-1">
                    <mxGeometry x="1287.5" y="100" width="120" height="40" as="geometry"/>
                </mxCell>
                <mxCell id="Y4SgJSNF3iMmkC4_ajjD-5" value="" style="rhombus;whiteSpace=wrap;html=1;fillColor=#5A45E0;strokeColor=#5F0D78;rotation=90;strokeWidth=3;" vertex="1" parent="Y4SgJSNF3iMmkC4_ajjD-1">
                    <mxGeometry x="1149.5" y="100" width="120" height="40" as="geometry"/>
                </mxCell>
                <mxCell id="Y4SgJSNF3iMmkC4_ajjD-6" value="" style="rhombus;whiteSpace=wrap;html=1;fillColor=#5A45E0;strokeColor=#5F0D78;rotation=90;strokeWidth=3;" vertex="1" parent="Y4SgJSNF3iMmkC4_ajjD-1">
                    <mxGeometry x="1011.5" y="100" width="120" height="40" as="geometry"/>
                </mxCell>
                <mxCell id="Y4SgJSNF3iMmkC4_ajjD-7" value="" style="rhombus;whiteSpace=wrap;html=1;fillColor=#5A45E0;strokeColor=#5F0D78;rotation=90;strokeWidth=3;" vertex="1" parent="Y4SgJSNF3iMmkC4_ajjD-1">
                    <mxGeometry x="873.5" y="100" width="120" height="40" as="geometry"/>
                </mxCell>
                <mxCell id="Y4SgJSNF3iMmkC4_ajjD-8" value="" style="rhombus;whiteSpace=wrap;html=1;fillColor=#5A45E0;strokeColor=#5F0D78;rotation=90;strokeWidth=3;" vertex="1" parent="Y4SgJSNF3iMmkC4_ajjD-1">
                    <mxGeometry x="734.5" y="100" width="120" height="40" as="geometry"/>
                </mxCell>
                <mxCell id="Y4SgJSNF3iMmkC4_ajjD-9" value="" style="rhombus;whiteSpace=wrap;html=1;fillColor=#5A45E0;strokeColor=#5F0D78;rotation=90;strokeWidth=3;" vertex="1" parent="Y4SgJSNF3iMmkC4_ajjD-1">
                    <mxGeometry x="596.5" y="100" width="120" height="40" as="geometry"/>
                </mxCell>
                <mxCell id="Y4SgJSNF3iMmkC4_ajjD-10" value="" style="rhombus;whiteSpace=wrap;html=1;fillColor=#5A45E0;strokeColor=#5F0D78;rotation=90;strokeWidth=3;" vertex="1" parent="Y4SgJSNF3iMmkC4_ajjD-1">
                    <mxGeometry x="458.5" y="100" width="120" height="40" as="geometry"/>
                </mxCell>
                <mxCell id="Y4SgJSNF3iMmkC4_ajjD-11" value="" style="rhombus;whiteSpace=wrap;html=1;fillColor=#5A45E0;strokeColor=#5F0D78;rotation=90;strokeWidth=3;" vertex="1" parent="Y4SgJSNF3iMmkC4_ajjD-1">
                    <mxGeometry x="320.5" y="100" width="120" height="40" as="geometry"/>
                </mxCell>
                <mxCell id="Y4SgJSNF3iMmkC4_ajjD-12" value="" style="rhombus;whiteSpace=wrap;html=1;fillColor=#5A45E0;strokeColor=#5F0D78;rotation=90;strokeWidth=3;" vertex="1" parent="Y4SgJSNF3iMmkC4_ajjD-1">
                    <mxGeometry x="182.5" y="100" width="120" height="40" as="geometry"/>
                </mxCell>
                <mxCell id="Y4SgJSNF3iMmkC4_ajjD-13" value="" style="rhombus;whiteSpace=wrap;html=1;fillColor=#5A45E0;strokeColor=#5F0D78;strokeWidth=3;" vertex="1" parent="Y4SgJSNF3iMmkC4_ajjD-1">
                    <mxGeometry x="341" y="447" width="120" height="40" as="geometry"/>
                </mxCell>
                <mxCell id="Y4SgJSNF3iMmkC4_ajjD-14" value="" style="rhombus;whiteSpace=wrap;html=1;fillColor=#5A45E0;strokeColor=#5F0D78;strokeWidth=3;" vertex="1" parent="Y4SgJSNF3iMmkC4_ajjD-1">
                    <mxGeometry x="537.5" y="447" width="120" height="40" as="geometry"/>
                </mxCell>
                <mxCell id="Y4SgJSNF3iMmkC4_ajjD-15" value="" style="rhombus;whiteSpace=wrap;html=1;fillColor=#5A45E0;strokeColor=#5F0D78;strokeWidth=3;" vertex="1" parent="Y4SgJSNF3iMmkC4_ajjD-1">
                    <mxGeometry x="734.5" y="447" width="120" height="40" as="geometry"/>
                </mxCell>
                <mxCell id="Y4SgJSNF3iMmkC4_ajjD-16" value="" style="rhombus;whiteSpace=wrap;html=1;fillColor=#5A45E0;strokeColor=#5F0D78;strokeWidth=3;" vertex="1" parent="Y4SgJSNF3iMmkC4_ajjD-1">
                    <mxGeometry x="931.5" y="447" width="120" height="40" as="geometry"/>
                </mxCell>
                <mxCell id="Y4SgJSNF3iMmkC4_ajjD-17" value="" style="rhombus;whiteSpace=wrap;html=1;fillColor=#5A45E0;strokeColor=#5F0D78;strokeWidth=3;" vertex="1" parent="Y4SgJSNF3iMmkC4_ajjD-1">
                    <mxGeometry x="1128" y="447" width="120" height="40" as="geometry"/>
                </mxCell>
                <mxCell id="Y4SgJSNF3iMmkC4_ajjD-18" value="" style="rhombus;whiteSpace=wrap;html=1;fillColor=#5A45E0;strokeColor=#5F0D78;strokeWidth=3;" vertex="1" parent="Y4SgJSNF3iMmkC4_ajjD-1">
                    <mxGeometry x="341" y="640" width="120" height="40" as="geometry"/>
                </mxCell>
                <mxCell id="Y4SgJSNF3iMmkC4_ajjD-19" value="" style="rhombus;whiteSpace=wrap;html=1;fillColor=#5A45E0;strokeColor=#5F0D78;strokeWidth=3;" vertex="1" parent="Y4SgJSNF3iMmkC4_ajjD-1">
                    <mxGeometry x="537.5" y="640" width="120" height="40" as="geometry"/>
                </mxCell>
                <mxCell id="Y4SgJSNF3iMmkC4_ajjD-20" value="" style="rhombus;whiteSpace=wrap;html=1;fillColor=#5A45E0;strokeColor=#5F0D78;strokeWidth=3;" vertex="1" parent="Y4SgJSNF3iMmkC4_ajjD-1">
                    <mxGeometry x="734.5" y="640" width="120" height="40" as="geometry"/>
                </mxCell>
                <mxCell id="Y4SgJSNF3iMmkC4_ajjD-21" value="" style="rhombus;whiteSpace=wrap;html=1;fillColor=#5A45E0;strokeColor=#5F0D78;strokeWidth=3;" vertex="1" parent="Y4SgJSNF3iMmkC4_ajjD-1">
                    <mxGeometry x="931.5" y="640" width="120" height="40" as="geometry"/>
                </mxCell>
                <mxCell id="Y4SgJSNF3iMmkC4_ajjD-22" value="" style="rhombus;whiteSpace=wrap;html=1;fillColor=#5A45E0;strokeColor=#5F0D78;strokeWidth=3;" vertex="1" parent="Y4SgJSNF3iMmkC4_ajjD-1">
                    <mxGeometry x="1128" y="640" width="120" height="40" as="geometry"/>
                </mxCell>
                <mxCell id="Y4SgJSNF3iMmkC4_ajjD-23" value="" style="rhombus;whiteSpace=wrap;html=1;fillColor=#5A45E0;strokeColor=#5F0D78;strokeWidth=3;" vertex="1" parent="Y4SgJSNF3iMmkC4_ajjD-1">
                    <mxGeometry x="243.5" y="543" width="120" height="40" as="geometry"/>
                </mxCell>
                <mxCell id="Y4SgJSNF3iMmkC4_ajjD-24" value="" style="rhombus;whiteSpace=wrap;html=1;fillColor=#5A45E0;strokeColor=#5F0D78;strokeWidth=3;" vertex="1" parent="Y4SgJSNF3iMmkC4_ajjD-1">
                    <mxGeometry x="440.5" y="543" width="120" height="40" as="geometry"/>
                </mxCell>
                <mxCell id="Y4SgJSNF3iMmkC4_ajjD-25" value="" style="rhombus;whiteSpace=wrap;html=1;fillColor=#5A45E0;strokeColor=#5F0D78;strokeWidth=3;" vertex="1" parent="Y4SgJSNF3iMmkC4_ajjD-1">
                    <mxGeometry x="637.5" y="543" width="120" height="40" as="geometry"/>
                </mxCell>
                <mxCell id="Y4SgJSNF3iMmkC4_ajjD-26" value="" style="rhombus;whiteSpace=wrap;html=1;fillColor=#5A45E0;strokeColor=#5F0D78;strokeWidth=3;" vertex="1" parent="Y4SgJSNF3iMmkC4_ajjD-1">
                    <mxGeometry x="833.5" y="543" width="120" height="40" as="geometry"/>
                </mxCell>
                <mxCell id="Y4SgJSNF3iMmkC4_ajjD-27" value="" style="rhombus;whiteSpace=wrap;html=1;fillColor=#5A45E0;strokeColor=#5F0D78;strokeWidth=3;" vertex="1" parent="Y4SgJSNF3iMmkC4_ajjD-1">
                    <mxGeometry x="1030.5" y="543" width="120" height="40" as="geometry"/>
                </mxCell>
                <mxCell id="Y4SgJSNF3iMmkC4_ajjD-28" value="" style="rhombus;whiteSpace=wrap;html=1;fillColor=#5A45E0;strokeColor=#5F0D78;strokeWidth=3;" vertex="1" parent="Y4SgJSNF3iMmkC4_ajjD-1">
                    <mxGeometry x="1227.5" y="543" width="120" height="40" as="geometry"/>
                </mxCell>
                <mxCell id="Y4SgJSNF3iMmkC4_ajjD-29" value="" style="rounded=0;whiteSpace=wrap;html=1;fillColor=#404040;fontColor=#333333;strokeColor=#CCCCCC;flipH=1;strokeWidth=5;" vertex="1" parent="Y4SgJSNF3iMmkC4_ajjD-1">
                    <mxGeometry x="1192.5" y="930" width="300" height="600" as="geometry"/>
                </mxCell>
                <mxCell id="Y4SgJSNF3iMmkC4_ajjD-30" value="" style="rounded=0;whiteSpace=wrap;html=1;fillColor=#404040;fontColor=#333333;strokeColor=#CCCCCC;flipH=1;strokeWidth=5;" vertex="1" parent="Y4SgJSNF3iMmkC4_ajjD-1">
                    <mxGeometry x="1192.5" y="930" width="170" height="600" as="geometry"/>
                </mxCell>
                <mxCell id="Y4SgJSNF3iMmkC4_ajjD-31" value="" style="rounded=0;whiteSpace=wrap;html=1;fillColor=#404040;fontColor=#333333;strokeColor=#CCCCCC;flipH=1;strokeWidth=5;" vertex="1" parent="Y4SgJSNF3iMmkC4_ajjD-1">
                    <mxGeometry x="1362.5" y="930" width="130" height="160" as="geometry"/>
                </mxCell>
                <mxCell id="Y4SgJSNF3iMmkC4_ajjD-32" value="" style="rounded=0;whiteSpace=wrap;html=1;fillColor=#404040;fontColor=#333333;strokeColor=#CCCCCC;flipH=1;strokeWidth=5;" vertex="1" parent="Y4SgJSNF3iMmkC4_ajjD-1">
                    <mxGeometry x="1362.5" y="1150" width="130" height="160" as="geometry"/>
                </mxCell>
                <mxCell id="Y4SgJSNF3iMmkC4_ajjD-33" value="" style="rounded=0;whiteSpace=wrap;html=1;fillColor=#404040;fontColor=#333333;strokeColor=#CCCCCC;flipH=1;strokeWidth=5;" vertex="1" parent="Y4SgJSNF3iMmkC4_ajjD-1">
                    <mxGeometry x="1362.5" y="1370" width="130" height="160" as="geometry"/>
                </mxCell>
                <mxCell id="Y4SgJSNF3iMmkC4_ajjD-36" value="" style="group;flipH=0;fillColor=none;strokeColor=none;strokeWidth=5;" vertex="1" connectable="0" parent="Y4SgJSNF3iMmkC4_ajjD-1">
                    <mxGeometry x="97.5" y="930" width="300" height="600" as="geometry"/>
                </mxCell>
                <mxCell id="Y4SgJSNF3iMmkC4_ajjD-37" value="" style="rounded=0;whiteSpace=wrap;html=1;fillColor=none;fontColor=#333333;strokeColor=none;flipH=1;strokeWidth=5;" vertex="1" parent="Y4SgJSNF3iMmkC4_ajjD-36">
                    <mxGeometry width="300" height="600" as="geometry"/>
                </mxCell>
                <mxCell id="Y4SgJSNF3iMmkC4_ajjD-38" value="" style="rounded=0;whiteSpace=wrap;html=1;fillColor=none;fontColor=#333333;strokeColor=none;flipH=1;strokeWidth=5;" vertex="1" parent="Y4SgJSNF3iMmkC4_ajjD-36">
                    <mxGeometry x="130" width="170" height="600" as="geometry"/>
                </mxCell>
                <mxCell id="Y4SgJSNF3iMmkC4_ajjD-39" value="" style="rounded=0;whiteSpace=wrap;html=1;fillColor=none;fontColor=#333333;strokeColor=none;flipH=1;strokeWidth=5;" vertex="1" parent="Y4SgJSNF3iMmkC4_ajjD-36">
                    <mxGeometry width="130" height="160" as="geometry"/>
                </mxCell>
                <mxCell id="Y4SgJSNF3iMmkC4_ajjD-40" value="" style="rounded=0;whiteSpace=wrap;html=1;fillColor=none;fontColor=#333333;strokeColor=none;flipH=1;strokeWidth=5;" vertex="1" parent="Y4SgJSNF3iMmkC4_ajjD-36">
                    <mxGeometry y="220" width="130" height="160" as="geometry"/>
                </mxCell>
                <mxCell id="Y4SgJSNF3iMmkC4_ajjD-41" value="" style="rounded=0;whiteSpace=wrap;html=1;fillColor=none;fontColor=#333333;strokeColor=none;flipH=1;strokeWidth=5;" vertex="1" parent="Y4SgJSNF3iMmkC4_ajjD-36">
                    <mxGeometry y="440" width="130" height="160" as="geometry"/>
                </mxCell>
                <mxCell id="Y4SgJSNF3iMmkC4_ajjD-42" value="" style="rhombus;whiteSpace=wrap;html=1;fillColor=#5A45E0;strokeColor=#5F0D78;rotation=90;strokeWidth=3;" vertex="1" parent="Y4SgJSNF3iMmkC4_ajjD-1">
                    <mxGeometry x="182.5" y="100" width="120" height="40" as="geometry"/>
                </mxCell>
                <mxCell id="Y4SgJSNF3iMmkC4_ajjD-43" value="" style="rhombus;whiteSpace=wrap;html=1;fillColor=#5A45E0;strokeColor=#5F0D78;rotation=90;strokeWidth=3;" vertex="1" parent="Y4SgJSNF3iMmkC4_ajjD-1">
                    <mxGeometry x="320.5" y="100" width="120" height="40" as="geometry"/>
                </mxCell>
                <mxCell id="Y4SgJSNF3iMmkC4_ajjD-44" value="" style="rhombus;whiteSpace=wrap;html=1;fillColor=#5A45E0;strokeColor=#5F0D78;rotation=90;strokeWidth=3;" vertex="1" parent="Y4SgJSNF3iMmkC4_ajjD-1">
                    <mxGeometry x="458.5" y="100" width="120" height="40" as="geometry"/>
                </mxCell>
                <mxCell id="Y4SgJSNF3iMmkC4_ajjD-45" value="" style="rhombus;whiteSpace=wrap;html=1;fillColor=#5A45E0;strokeColor=#5F0D78;rotation=90;strokeWidth=3;" vertex="1" parent="Y4SgJSNF3iMmkC4_ajjD-1">
                    <mxGeometry x="596.5" y="100" width="120" height="40" as="geometry"/>
                </mxCell>
                <mxCell id="Y4SgJSNF3iMmkC4_ajjD-46" value="" style="rhombus;whiteSpace=wrap;html=1;fillColor=#5A45E0;strokeColor=#5F0D78;rotation=90;strokeWidth=3;" vertex="1" parent="Y4SgJSNF3iMmkC4_ajjD-1">
                    <mxGeometry x="735.5" y="100" width="120" height="40" as="geometry"/>
                </mxCell>
                <mxCell id="Y4SgJSNF3iMmkC4_ajjD-47" value="" style="rhombus;whiteSpace=wrap;html=1;fillColor=#5A45E0;strokeColor=#5F0D78;rotation=90;strokeWidth=3;" vertex="1" parent="Y4SgJSNF3iMmkC4_ajjD-1">
                    <mxGeometry x="873.5" y="100" width="120" height="40" as="geometry"/>
                </mxCell>
                <mxCell id="Y4SgJSNF3iMmkC4_ajjD-48" value="" style="rhombus;whiteSpace=wrap;html=1;fillColor=#5A45E0;strokeColor=#5F0D78;rotation=90;strokeWidth=3;" vertex="1" parent="Y4SgJSNF3iMmkC4_ajjD-1">
                    <mxGeometry x="1011.5" y="100" width="120" height="40" as="geometry"/>
                </mxCell>
                <mxCell id="Y4SgJSNF3iMmkC4_ajjD-49" value="" style="rhombus;whiteSpace=wrap;html=1;fillColor=#5A45E0;strokeColor=#5F0D78;rotation=90;strokeWidth=3;" vertex="1" parent="Y4SgJSNF3iMmkC4_ajjD-1">
                    <mxGeometry x="1149.5" y="100" width="120" height="40" as="geometry"/>
                </mxCell>
                <mxCell id="Y4SgJSNF3iMmkC4_ajjD-50" value="" style="rhombus;whiteSpace=wrap;html=1;fillColor=#5A45E0;strokeColor=#5F0D78;rotation=90;strokeWidth=3;" vertex="1" parent="Y4SgJSNF3iMmkC4_ajjD-1">
                    <mxGeometry x="1287.5" y="100" width="120" height="40" as="geometry"/>
                </mxCell>
                <mxCell id="Y4SgJSNF3iMmkC4_ajjD-51" value="" style="rhombus;whiteSpace=wrap;html=1;fillColor=#5A45E0;strokeColor=#5F0D78;strokeWidth=3;" vertex="1" parent="Y4SgJSNF3iMmkC4_ajjD-1">
                    <mxGeometry x="1129" y="447" width="120" height="40" as="geometry"/>
                </mxCell>
                <mxCell id="Y4SgJSNF3iMmkC4_ajjD-52" value="" style="rhombus;whiteSpace=wrap;html=1;fillColor=#5A45E0;strokeColor=#5F0D78;strokeWidth=3;" vertex="1" parent="Y4SgJSNF3iMmkC4_ajjD-1">
                    <mxGeometry x="932.5" y="447" width="120" height="40" as="geometry"/>
                </mxCell>
                <mxCell id="Y4SgJSNF3iMmkC4_ajjD-53" value="" style="rhombus;whiteSpace=wrap;html=1;fillColor=#5A45E0;strokeColor=#5F0D78;strokeWidth=3;" vertex="1" parent="Y4SgJSNF3iMmkC4_ajjD-1">
                    <mxGeometry x="735.5" y="447" width="120" height="40" as="geometry"/>
                </mxCell>
                <mxCell id="Y4SgJSNF3iMmkC4_ajjD-54" value="" style="rhombus;whiteSpace=wrap;html=1;fillColor=#5A45E0;strokeColor=#5F0D78;strokeWidth=3;" vertex="1" parent="Y4SgJSNF3iMmkC4_ajjD-1">
                    <mxGeometry x="538.5" y="447" width="120" height="40" as="geometry"/>
                </mxCell>
                <mxCell id="Y4SgJSNF3iMmkC4_ajjD-55" value="" style="rhombus;whiteSpace=wrap;html=1;fillColor=#5A45E0;strokeColor=#5F0D78;strokeWidth=3;" vertex="1" parent="Y4SgJSNF3iMmkC4_ajjD-1">
                    <mxGeometry x="342" y="447" width="120" height="40" as="geometry"/>
                </mxCell>
                <mxCell id="Y4SgJSNF3iMmkC4_ajjD-56" value="" style="rhombus;whiteSpace=wrap;html=1;fillColor=#5A45E0;strokeColor=#5F0D78;strokeWidth=3;" vertex="1" parent="Y4SgJSNF3iMmkC4_ajjD-1">
                    <mxGeometry x="1129" y="640" width="120" height="40" as="geometry"/>
                </mxCell>
                <mxCell id="Y4SgJSNF3iMmkC4_ajjD-57" value="" style="rhombus;whiteSpace=wrap;html=1;fillColor=#5A45E0;strokeColor=#5F0D78;strokeWidth=3;" vertex="1" parent="Y4SgJSNF3iMmkC4_ajjD-1">
                    <mxGeometry x="932.5" y="640" width="120" height="40" as="geometry"/>
                </mxCell>
                <mxCell id="Y4SgJSNF3iMmkC4_ajjD-58" value="" style="rhombus;whiteSpace=wrap;html=1;fillColor=#5A45E0;strokeColor=#5F0D78;strokeWidth=3;" vertex="1" parent="Y4SgJSNF3iMmkC4_ajjD-1">
                    <mxGeometry x="735.5" y="640" width="120" height="40" as="geometry"/>
                </mxCell>
                <mxCell id="Y4SgJSNF3iMmkC4_ajjD-59" value="" style="rhombus;whiteSpace=wrap;html=1;fillColor=#5A45E0;strokeColor=#5F0D78;strokeWidth=3;" vertex="1" parent="Y4SgJSNF3iMmkC4_ajjD-1">
                    <mxGeometry x="538.5" y="640" width="120" height="40" as="geometry"/>
                </mxCell>
                <mxCell id="Y4SgJSNF3iMmkC4_ajjD-60" value="" style="rhombus;whiteSpace=wrap;html=1;fillColor=#5A45E0;strokeColor=#5F0D78;strokeWidth=3;" vertex="1" parent="Y4SgJSNF3iMmkC4_ajjD-1">
                    <mxGeometry x="342" y="640" width="120" height="40" as="geometry"/>
                </mxCell>
                <mxCell id="Y4SgJSNF3iMmkC4_ajjD-61" value="" style="rhombus;whiteSpace=wrap;html=1;fillColor=#5A45E0;strokeColor=#5F0D78;strokeWidth=3;" vertex="1" parent="Y4SgJSNF3iMmkC4_ajjD-1">
                    <mxGeometry x="1226.5" y="543" width="120" height="40" as="geometry"/>
                </mxCell>
                <mxCell id="Y4SgJSNF3iMmkC4_ajjD-62" value="" style="rhombus;whiteSpace=wrap;html=1;fillColor=#5A45E0;strokeColor=#5F0D78;strokeWidth=3;" vertex="1" parent="Y4SgJSNF3iMmkC4_ajjD-1">
                    <mxGeometry x="1029.5" y="543" width="120" height="40" as="geometry"/>
                </mxCell>
                <mxCell id="Y4SgJSNF3iMmkC4_ajjD-63" value="" style="rhombus;whiteSpace=wrap;html=1;fillColor=#5A45E0;strokeColor=#5F0D78;strokeWidth=3;" vertex="1" parent="Y4SgJSNF3iMmkC4_ajjD-1">
                    <mxGeometry x="832.5" y="543" width="120" height="40" as="geometry"/>
                </mxCell>
                <mxCell id="Y4SgJSNF3iMmkC4_ajjD-64" value="" style="rhombus;whiteSpace=wrap;html=1;fillColor=#5A45E0;strokeColor=#5F0D78;strokeWidth=3;" vertex="1" parent="Y4SgJSNF3iMmkC4_ajjD-1">
                    <mxGeometry x="636.5" y="543" width="120" height="40" as="geometry"/>
                </mxCell>
                <mxCell id="Y4SgJSNF3iMmkC4_ajjD-65" value="" style="rhombus;whiteSpace=wrap;html=1;fillColor=#5A45E0;strokeColor=#5F0D78;strokeWidth=3;" vertex="1" parent="Y4SgJSNF3iMmkC4_ajjD-1">
                    <mxGeometry x="439.5" y="543" width="120" height="40" as="geometry"/>
                </mxCell>
                <mxCell id="Y4SgJSNF3iMmkC4_ajjD-66" value="" style="rhombus;whiteSpace=wrap;html=1;fillColor=#5A45E0;strokeColor=#5F0D78;strokeWidth=3;" vertex="1" parent="Y4SgJSNF3iMmkC4_ajjD-1">
                    <mxGeometry x="242.5" y="543" width="120" height="40" as="geometry"/>
                </mxCell>
            </root>
        </mxGraphModel>
    </diagram>
    <diagram name="red" id="R61rmCH0L-FGKLMVn77C">
        <mxGraphModel dx="594" dy="986" grid="1" gridSize="10" guides="1" tooltips="1" connect="1" arrows="1" fold="1" page="0" pageScale="1" pageWidth="827" pageHeight="1169" background="none" math="0" shadow="0">
            <root>
                <mxCell id="5YTDhks8DlBNLYCL99II-0"/>
                <mxCell id="5YTDhks8DlBNLYCL99II-1" parent="5YTDhks8DlBNLYCL99II-0"/>
                <mxCell id="5YTDhks8DlBNLYCL99II-2" value="" style="rounded=0;whiteSpace=wrap;html=1;fillColor=#404040;fontColor=#333333;strokeColor=#8A8A8A;strokeWidth=3;" parent="5YTDhks8DlBNLYCL99II-1" vertex="1">
                    <mxGeometry x="120" y="-30" width="1350" height="300" as="geometry"/>
                </mxCell>
                <mxCell id="5YTDhks8DlBNLYCL99II-3" value="" style="rounded=0;whiteSpace=wrap;html=1;fillColor=#190E78;strokeColor=#2800F2;strokeWidth=4;movable=0;resizable=0;rotatable=0;deletable=0;editable=0;connectable=0;" parent="5YTDhks8DlBNLYCL99II-1" vertex="1">
                    <mxGeometry x="120" y="270" width="1350" height="525" as="geometry"/>
                </mxCell>
                <mxCell id="5YTDhks8DlBNLYCL99II-4" value="" style="rhombus;whiteSpace=wrap;html=1;fillColor=#5A45E0;strokeColor=#5F0D78;rotation=90;strokeWidth=3;" parent="5YTDhks8DlBNLYCL99II-1" vertex="1">
                    <mxGeometry x="1287.5" y="100" width="120" height="40" as="geometry"/>
                </mxCell>
                <mxCell id="5YTDhks8DlBNLYCL99II-5" value="" style="rhombus;whiteSpace=wrap;html=1;fillColor=#5A45E0;strokeColor=#5F0D78;rotation=90;strokeWidth=3;" parent="5YTDhks8DlBNLYCL99II-1" vertex="1">
                    <mxGeometry x="1149.5" y="100" width="120" height="40" as="geometry"/>
                </mxCell>
                <mxCell id="5YTDhks8DlBNLYCL99II-6" value="" style="rhombus;whiteSpace=wrap;html=1;fillColor=#5A45E0;strokeColor=#5F0D78;rotation=90;strokeWidth=3;" parent="5YTDhks8DlBNLYCL99II-1" vertex="1">
                    <mxGeometry x="1011.5" y="100" width="120" height="40" as="geometry"/>
                </mxCell>
                <mxCell id="5YTDhks8DlBNLYCL99II-7" value="" style="rhombus;whiteSpace=wrap;html=1;fillColor=#5A45E0;strokeColor=#5F0D78;rotation=90;strokeWidth=3;" parent="5YTDhks8DlBNLYCL99II-1" vertex="1">
                    <mxGeometry x="873.5" y="100" width="120" height="40" as="geometry"/>
                </mxCell>
                <mxCell id="5YTDhks8DlBNLYCL99II-8" value="" style="rhombus;whiteSpace=wrap;html=1;fillColor=#5A45E0;strokeColor=#5F0D78;rotation=90;strokeWidth=3;" parent="5YTDhks8DlBNLYCL99II-1" vertex="1">
                    <mxGeometry x="734.5" y="100" width="120" height="40" as="geometry"/>
                </mxCell>
                <mxCell id="5YTDhks8DlBNLYCL99II-9" value="" style="rhombus;whiteSpace=wrap;html=1;fillColor=#5A45E0;strokeColor=#5F0D78;rotation=90;strokeWidth=3;" parent="5YTDhks8DlBNLYCL99II-1" vertex="1">
                    <mxGeometry x="596.5" y="100" width="120" height="40" as="geometry"/>
                </mxCell>
                <mxCell id="5YTDhks8DlBNLYCL99II-10" value="" style="rhombus;whiteSpace=wrap;html=1;fillColor=#5A45E0;strokeColor=#5F0D78;rotation=90;strokeWidth=3;" parent="5YTDhks8DlBNLYCL99II-1" vertex="1">
                    <mxGeometry x="458.5" y="100" width="120" height="40" as="geometry"/>
                </mxCell>
                <mxCell id="5YTDhks8DlBNLYCL99II-11" value="" style="rhombus;whiteSpace=wrap;html=1;fillColor=#5A45E0;strokeColor=#5F0D78;rotation=90;strokeWidth=3;" parent="5YTDhks8DlBNLYCL99II-1" vertex="1">
                    <mxGeometry x="320.5" y="100" width="120" height="40" as="geometry"/>
                </mxCell>
                <mxCell id="5YTDhks8DlBNLYCL99II-12" value="" style="rhombus;whiteSpace=wrap;html=1;fillColor=#5A45E0;strokeColor=#5F0D78;rotation=90;strokeWidth=3;" parent="5YTDhks8DlBNLYCL99II-1" vertex="1">
                    <mxGeometry x="182.5" y="100" width="120" height="40" as="geometry"/>
                </mxCell>
                <mxCell id="5YTDhks8DlBNLYCL99II-13" value="" style="rhombus;whiteSpace=wrap;html=1;fillColor=#5A45E0;strokeColor=#5F0D78;strokeWidth=3;" parent="5YTDhks8DlBNLYCL99II-1" vertex="1">
                    <mxGeometry x="341" y="447" width="120" height="40" as="geometry"/>
                </mxCell>
                <mxCell id="5YTDhks8DlBNLYCL99II-14" value="" style="rhombus;whiteSpace=wrap;html=1;fillColor=#5A45E0;strokeColor=#5F0D78;strokeWidth=3;" parent="5YTDhks8DlBNLYCL99II-1" vertex="1">
                    <mxGeometry x="537.5" y="447" width="120" height="40" as="geometry"/>
                </mxCell>
                <mxCell id="5YTDhks8DlBNLYCL99II-15" value="" style="rhombus;whiteSpace=wrap;html=1;fillColor=#5A45E0;strokeColor=#5F0D78;strokeWidth=3;" parent="5YTDhks8DlBNLYCL99II-1" vertex="1">
                    <mxGeometry x="734.5" y="447" width="120" height="40" as="geometry"/>
                </mxCell>
                <mxCell id="5YTDhks8DlBNLYCL99II-16" value="" style="rhombus;whiteSpace=wrap;html=1;fillColor=#5A45E0;strokeColor=#5F0D78;strokeWidth=3;" parent="5YTDhks8DlBNLYCL99II-1" vertex="1">
                    <mxGeometry x="931.5" y="447" width="120" height="40" as="geometry"/>
                </mxCell>
                <mxCell id="5YTDhks8DlBNLYCL99II-17" value="" style="rhombus;whiteSpace=wrap;html=1;fillColor=#5A45E0;strokeColor=#5F0D78;strokeWidth=3;" parent="5YTDhks8DlBNLYCL99II-1" vertex="1">
                    <mxGeometry x="1128" y="447" width="120" height="40" as="geometry"/>
                </mxCell>
                <mxCell id="5YTDhks8DlBNLYCL99II-18" value="" style="rhombus;whiteSpace=wrap;html=1;fillColor=#5A45E0;strokeColor=#5F0D78;strokeWidth=3;" parent="5YTDhks8DlBNLYCL99II-1" vertex="1">
                    <mxGeometry x="341" y="640" width="120" height="40" as="geometry"/>
                </mxCell>
                <mxCell id="5YTDhks8DlBNLYCL99II-19" value="" style="rhombus;whiteSpace=wrap;html=1;fillColor=#5A45E0;strokeColor=#5F0D78;strokeWidth=3;" parent="5YTDhks8DlBNLYCL99II-1" vertex="1">
                    <mxGeometry x="537.5" y="640" width="120" height="40" as="geometry"/>
                </mxCell>
                <mxCell id="5YTDhks8DlBNLYCL99II-20" value="" style="rhombus;whiteSpace=wrap;html=1;fillColor=#5A45E0;strokeColor=#5F0D78;strokeWidth=3;" parent="5YTDhks8DlBNLYCL99II-1" vertex="1">
                    <mxGeometry x="734.5" y="640" width="120" height="40" as="geometry"/>
                </mxCell>
                <mxCell id="5YTDhks8DlBNLYCL99II-21" value="" style="rhombus;whiteSpace=wrap;html=1;fillColor=#5A45E0;strokeColor=#5F0D78;strokeWidth=3;" parent="5YTDhks8DlBNLYCL99II-1" vertex="1">
                    <mxGeometry x="931.5" y="640" width="120" height="40" as="geometry"/>
                </mxCell>
                <mxCell id="5YTDhks8DlBNLYCL99II-22" value="" style="rhombus;whiteSpace=wrap;html=1;fillColor=#5A45E0;strokeColor=#5F0D78;strokeWidth=3;" parent="5YTDhks8DlBNLYCL99II-1" vertex="1">
                    <mxGeometry x="1128" y="640" width="120" height="40" as="geometry"/>
                </mxCell>
                <mxCell id="5YTDhks8DlBNLYCL99II-23" value="" style="rhombus;whiteSpace=wrap;html=1;fillColor=#5A45E0;strokeColor=#5F0D78;strokeWidth=3;" parent="5YTDhks8DlBNLYCL99II-1" vertex="1">
                    <mxGeometry x="243.5" y="543" width="120" height="40" as="geometry"/>
                </mxCell>
                <mxCell id="5YTDhks8DlBNLYCL99II-24" value="" style="rhombus;whiteSpace=wrap;html=1;fillColor=#5A45E0;strokeColor=#5F0D78;strokeWidth=3;" parent="5YTDhks8DlBNLYCL99II-1" vertex="1">
                    <mxGeometry x="440.5" y="543" width="120" height="40" as="geometry"/>
                </mxCell>
                <mxCell id="5YTDhks8DlBNLYCL99II-25" value="" style="rhombus;whiteSpace=wrap;html=1;fillColor=#5A45E0;strokeColor=#5F0D78;strokeWidth=3;" parent="5YTDhks8DlBNLYCL99II-1" vertex="1">
                    <mxGeometry x="637.5" y="543" width="120" height="40" as="geometry"/>
                </mxCell>
                <mxCell id="5YTDhks8DlBNLYCL99II-26" value="" style="rhombus;whiteSpace=wrap;html=1;fillColor=#5A45E0;strokeColor=#5F0D78;strokeWidth=3;" parent="5YTDhks8DlBNLYCL99II-1" vertex="1">
                    <mxGeometry x="833.5" y="543" width="120" height="40" as="geometry"/>
                </mxCell>
                <mxCell id="5YTDhks8DlBNLYCL99II-27" value="" style="rhombus;whiteSpace=wrap;html=1;fillColor=#5A45E0;strokeColor=#5F0D78;strokeWidth=3;" parent="5YTDhks8DlBNLYCL99II-1" vertex="1">
                    <mxGeometry x="1030.5" y="543" width="120" height="40" as="geometry"/>
                </mxCell>
                <mxCell id="5YTDhks8DlBNLYCL99II-28" value="" style="rhombus;whiteSpace=wrap;html=1;fillColor=#5A45E0;strokeColor=#5F0D78;strokeWidth=3;" parent="5YTDhks8DlBNLYCL99II-1" vertex="1">
                    <mxGeometry x="1227.5" y="543" width="120" height="40" as="geometry"/>
                </mxCell>
                <mxCell id="5YTDhks8DlBNLYCL99II-29" value="" style="rounded=0;whiteSpace=wrap;html=1;fillColor=none;fontColor=#333333;strokeColor=none;flipH=1;strokeWidth=5;" parent="5YTDhks8DlBNLYCL99II-1" vertex="1">
                    <mxGeometry x="1192.5" y="930" width="300" height="600" as="geometry"/>
                </mxCell>
                <mxCell id="5YTDhks8DlBNLYCL99II-30" value="" style="rounded=0;whiteSpace=wrap;html=1;fillColor=none;fontColor=#333333;strokeColor=none;flipH=1;strokeWidth=5;" parent="5YTDhks8DlBNLYCL99II-1" vertex="1">
                    <mxGeometry x="1192.5" y="930" width="170" height="600" as="geometry"/>
                </mxCell>
                <mxCell id="5YTDhks8DlBNLYCL99II-31" value="" style="rounded=0;whiteSpace=wrap;html=1;fillColor=none;fontColor=#333333;strokeColor=none;flipH=1;strokeWidth=5;" parent="5YTDhks8DlBNLYCL99II-1" vertex="1">
                    <mxGeometry x="1362.5" y="930" width="130" height="160" as="geometry"/>
                </mxCell>
                <mxCell id="5YTDhks8DlBNLYCL99II-32" value="" style="rounded=0;whiteSpace=wrap;html=1;fillColor=none;fontColor=#333333;strokeColor=none;flipH=1;strokeWidth=5;" parent="5YTDhks8DlBNLYCL99II-1" vertex="1">
                    <mxGeometry x="1362.5" y="1150" width="130" height="160" as="geometry"/>
                </mxCell>
                <mxCell id="5YTDhks8DlBNLYCL99II-33" value="" style="rounded=0;whiteSpace=wrap;html=1;fillColor=none;fontColor=#333333;strokeColor=none;flipH=1;strokeWidth=5;" parent="5YTDhks8DlBNLYCL99II-1" vertex="1">
                    <mxGeometry x="1362.5" y="1370" width="130" height="160" as="geometry"/>
                </mxCell>
                <mxCell id="5YTDhks8DlBNLYCL99II-34" value="" style="rounded=0;whiteSpace=wrap;html=1;fillColor=#404040;fontColor=#333333;strokeColor=#8A8A8A;strokeWidth=3;" parent="5YTDhks8DlBNLYCL99II-1" vertex="1">
                    <mxGeometry x="120" y="-30" width="1350" height="300" as="geometry"/>
                </mxCell>
                <mxCell id="5YTDhks8DlBNLYCL99II-35" value="" style="rounded=0;whiteSpace=wrap;html=1;fillColor=#990B06;strokeColor=#BD0E08;strokeWidth=4;" parent="5YTDhks8DlBNLYCL99II-1" vertex="1">
                    <mxGeometry x="120" y="270" width="1350" height="525" as="geometry"/>
                </mxCell>
                <mxCell id="5YTDhks8DlBNLYCL99II-36" value="" style="group;flipH=0;fillColor=#404040;strokeColor=#FFFFFF;strokeWidth=5;" parent="5YTDhks8DlBNLYCL99II-1" vertex="1" connectable="0">
                    <mxGeometry x="97.5" y="930" width="300" height="600" as="geometry"/>
                </mxCell>
                <mxCell id="5YTDhks8DlBNLYCL99II-37" value="" style="rounded=0;whiteSpace=wrap;html=1;fillColor=#404040;fontColor=#333333;strokeColor=#FFFFFF;flipH=1;strokeWidth=5;" parent="5YTDhks8DlBNLYCL99II-36" vertex="1">
                    <mxGeometry width="300" height="600" as="geometry"/>
                </mxCell>
                <mxCell id="5YTDhks8DlBNLYCL99II-38" value="" style="rounded=0;whiteSpace=wrap;html=1;fillColor=#404040;fontColor=#333333;strokeColor=#FFFFFF;flipH=1;strokeWidth=5;" parent="5YTDhks8DlBNLYCL99II-36" vertex="1">
                    <mxGeometry x="130" width="170" height="600" as="geometry"/>
                </mxCell>
                <mxCell id="5YTDhks8DlBNLYCL99II-39" value="" style="rounded=0;whiteSpace=wrap;html=1;fillColor=#404040;fontColor=#333333;strokeColor=#FFFFFF;flipH=1;strokeWidth=5;" parent="5YTDhks8DlBNLYCL99II-36" vertex="1">
                    <mxGeometry width="130" height="160" as="geometry"/>
                </mxCell>
                <mxCell id="5YTDhks8DlBNLYCL99II-40" value="" style="rounded=0;whiteSpace=wrap;html=1;fillColor=#404040;fontColor=#333333;strokeColor=#FFFFFF;flipH=1;strokeWidth=5;" parent="5YTDhks8DlBNLYCL99II-36" vertex="1">
                    <mxGeometry y="220" width="130" height="160" as="geometry"/>
                </mxCell>
                <mxCell id="5YTDhks8DlBNLYCL99II-41" value="" style="rounded=0;whiteSpace=wrap;html=1;fillColor=#404040;fontColor=#333333;strokeColor=#FFFFFF;flipH=1;strokeWidth=5;" parent="5YTDhks8DlBNLYCL99II-36" vertex="1">
                    <mxGeometry y="440" width="130" height="160" as="geometry"/>
                </mxCell>
                <mxCell id="5YTDhks8DlBNLYCL99II-42" value="" style="rhombus;whiteSpace=wrap;html=1;fillColor=#5A45E0;strokeColor=#5F0D78;rotation=90;strokeWidth=3;" parent="5YTDhks8DlBNLYCL99II-1" vertex="1">
                    <mxGeometry x="182.5" y="100" width="120" height="40" as="geometry"/>
                </mxCell>
                <mxCell id="5YTDhks8DlBNLYCL99II-43" value="" style="rhombus;whiteSpace=wrap;html=1;fillColor=#5A45E0;strokeColor=#5F0D78;rotation=90;strokeWidth=3;" parent="5YTDhks8DlBNLYCL99II-1" vertex="1">
                    <mxGeometry x="320.5" y="100" width="120" height="40" as="geometry"/>
                </mxCell>
                <mxCell id="5YTDhks8DlBNLYCL99II-44" value="" style="rhombus;whiteSpace=wrap;html=1;fillColor=#5A45E0;strokeColor=#5F0D78;rotation=90;strokeWidth=3;" parent="5YTDhks8DlBNLYCL99II-1" vertex="1">
                    <mxGeometry x="458.5" y="100" width="120" height="40" as="geometry"/>
                </mxCell>
                <mxCell id="5YTDhks8DlBNLYCL99II-45" value="" style="rhombus;whiteSpace=wrap;html=1;fillColor=#5A45E0;strokeColor=#5F0D78;rotation=90;strokeWidth=3;" parent="5YTDhks8DlBNLYCL99II-1" vertex="1">
                    <mxGeometry x="596.5" y="100" width="120" height="40" as="geometry"/>
                </mxCell>
                <mxCell id="5YTDhks8DlBNLYCL99II-46" value="" style="rhombus;whiteSpace=wrap;html=1;fillColor=#5A45E0;strokeColor=#5F0D78;rotation=90;strokeWidth=3;" parent="5YTDhks8DlBNLYCL99II-1" vertex="1">
                    <mxGeometry x="735.5" y="100" width="120" height="40" as="geometry"/>
                </mxCell>
                <mxCell id="5YTDhks8DlBNLYCL99II-47" value="" style="rhombus;whiteSpace=wrap;html=1;fillColor=#5A45E0;strokeColor=#5F0D78;rotation=90;strokeWidth=3;" parent="5YTDhks8DlBNLYCL99II-1" vertex="1">
                    <mxGeometry x="873.5" y="100" width="120" height="40" as="geometry"/>
                </mxCell>
                <mxCell id="5YTDhks8DlBNLYCL99II-48" value="" style="rhombus;whiteSpace=wrap;html=1;fillColor=#5A45E0;strokeColor=#5F0D78;rotation=90;strokeWidth=3;" parent="5YTDhks8DlBNLYCL99II-1" vertex="1">
                    <mxGeometry x="1011.5" y="100" width="120" height="40" as="geometry"/>
                </mxCell>
                <mxCell id="5YTDhks8DlBNLYCL99II-49" value="" style="rhombus;whiteSpace=wrap;html=1;fillColor=#5A45E0;strokeColor=#5F0D78;rotation=90;strokeWidth=3;" parent="5YTDhks8DlBNLYCL99II-1" vertex="1">
                    <mxGeometry x="1149.5" y="100" width="120" height="40" as="geometry"/>
                </mxCell>
                <mxCell id="5YTDhks8DlBNLYCL99II-50" value="" style="rhombus;whiteSpace=wrap;html=1;fillColor=#5A45E0;strokeColor=#5F0D78;rotation=90;strokeWidth=3;" parent="5YTDhks8DlBNLYCL99II-1" vertex="1">
                    <mxGeometry x="1287.5" y="100" width="120" height="40" as="geometry"/>
                </mxCell>
                <mxCell id="5YTDhks8DlBNLYCL99II-51" value="" style="rhombus;whiteSpace=wrap;html=1;fillColor=#5A45E0;strokeColor=#5F0D78;strokeWidth=3;" parent="5YTDhks8DlBNLYCL99II-1" vertex="1">
                    <mxGeometry x="1129" y="447" width="120" height="40" as="geometry"/>
                </mxCell>
                <mxCell id="5YTDhks8DlBNLYCL99II-52" value="" style="rhombus;whiteSpace=wrap;html=1;fillColor=#5A45E0;strokeColor=#5F0D78;strokeWidth=3;" parent="5YTDhks8DlBNLYCL99II-1" vertex="1">
                    <mxGeometry x="932.5" y="447" width="120" height="40" as="geometry"/>
                </mxCell>
                <mxCell id="5YTDhks8DlBNLYCL99II-53" value="" style="rhombus;whiteSpace=wrap;html=1;fillColor=#5A45E0;strokeColor=#5F0D78;strokeWidth=3;" parent="5YTDhks8DlBNLYCL99II-1" vertex="1">
                    <mxGeometry x="735.5" y="447" width="120" height="40" as="geometry"/>
                </mxCell>
                <mxCell id="5YTDhks8DlBNLYCL99II-54" value="" style="rhombus;whiteSpace=wrap;html=1;fillColor=#5A45E0;strokeColor=#5F0D78;strokeWidth=3;" parent="5YTDhks8DlBNLYCL99II-1" vertex="1">
                    <mxGeometry x="538.5" y="447" width="120" height="40" as="geometry"/>
                </mxCell>
                <mxCell id="5YTDhks8DlBNLYCL99II-55" value="" style="rhombus;whiteSpace=wrap;html=1;fillColor=#5A45E0;strokeColor=#5F0D78;strokeWidth=3;" parent="5YTDhks8DlBNLYCL99II-1" vertex="1">
                    <mxGeometry x="342" y="447" width="120" height="40" as="geometry"/>
                </mxCell>
                <mxCell id="5YTDhks8DlBNLYCL99II-56" value="" style="rhombus;whiteSpace=wrap;html=1;fillColor=#5A45E0;strokeColor=#5F0D78;strokeWidth=3;" parent="5YTDhks8DlBNLYCL99II-1" vertex="1">
                    <mxGeometry x="1129" y="640" width="120" height="40" as="geometry"/>
                </mxCell>
                <mxCell id="5YTDhks8DlBNLYCL99II-57" value="" style="rhombus;whiteSpace=wrap;html=1;fillColor=#5A45E0;strokeColor=#5F0D78;strokeWidth=3;" parent="5YTDhks8DlBNLYCL99II-1" vertex="1">
                    <mxGeometry x="932.5" y="640" width="120" height="40" as="geometry"/>
                </mxCell>
                <mxCell id="5YTDhks8DlBNLYCL99II-58" value="" style="rhombus;whiteSpace=wrap;html=1;fillColor=#5A45E0;strokeColor=#5F0D78;strokeWidth=3;" parent="5YTDhks8DlBNLYCL99II-1" vertex="1">
                    <mxGeometry x="735.5" y="640" width="120" height="40" as="geometry"/>
                </mxCell>
                <mxCell id="5YTDhks8DlBNLYCL99II-59" value="" style="rhombus;whiteSpace=wrap;html=1;fillColor=#5A45E0;strokeColor=#5F0D78;strokeWidth=3;" parent="5YTDhks8DlBNLYCL99II-1" vertex="1">
                    <mxGeometry x="538.5" y="640" width="120" height="40" as="geometry"/>
                </mxCell>
                <mxCell id="5YTDhks8DlBNLYCL99II-60" value="" style="rhombus;whiteSpace=wrap;html=1;fillColor=#5A45E0;strokeColor=#5F0D78;strokeWidth=3;" parent="5YTDhks8DlBNLYCL99II-1" vertex="1">
                    <mxGeometry x="342" y="640" width="120" height="40" as="geometry"/>
                </mxCell>
                <mxCell id="5YTDhks8DlBNLYCL99II-61" value="" style="rhombus;whiteSpace=wrap;html=1;fillColor=#5A45E0;strokeColor=#5F0D78;strokeWidth=3;" parent="5YTDhks8DlBNLYCL99II-1" vertex="1">
                    <mxGeometry x="1226.5" y="543" width="120" height="40" as="geometry"/>
                </mxCell>
                <mxCell id="5YTDhks8DlBNLYCL99II-62" value="" style="rhombus;whiteSpace=wrap;html=1;fillColor=#5A45E0;strokeColor=#5F0D78;strokeWidth=3;" parent="5YTDhks8DlBNLYCL99II-1" vertex="1">
                    <mxGeometry x="1029.5" y="543" width="120" height="40" as="geometry"/>
                </mxCell>
                <mxCell id="5YTDhks8DlBNLYCL99II-63" value="" style="rhombus;whiteSpace=wrap;html=1;fillColor=#5A45E0;strokeColor=#5F0D78;strokeWidth=3;" parent="5YTDhks8DlBNLYCL99II-1" vertex="1">
                    <mxGeometry x="832.5" y="543" width="120" height="40" as="geometry"/>
                </mxCell>
                <mxCell id="5YTDhks8DlBNLYCL99II-64" value="" style="rhombus;whiteSpace=wrap;html=1;fillColor=#5A45E0;strokeColor=#5F0D78;strokeWidth=3;" parent="5YTDhks8DlBNLYCL99II-1" vertex="1">
                    <mxGeometry x="636.5" y="543" width="120" height="40" as="geometry"/>
                </mxCell>
                <mxCell id="5YTDhks8DlBNLYCL99II-65" value="" style="rhombus;whiteSpace=wrap;html=1;fillColor=#5A45E0;strokeColor=#5F0D78;strokeWidth=3;" parent="5YTDhks8DlBNLYCL99II-1" vertex="1">
                    <mxGeometry x="439.5" y="543" width="120" height="40" as="geometry"/>
                </mxCell>
                <mxCell id="5YTDhks8DlBNLYCL99II-66" value="" style="rhombus;whiteSpace=wrap;html=1;fillColor=#5A45E0;strokeColor=#5F0D78;strokeWidth=3;" parent="5YTDhks8DlBNLYCL99II-1" vertex="1">
                    <mxGeometry x="242.5" y="543" width="120" height="40" as="geometry"/>
                </mxCell>
            </root>
        </mxGraphModel>
    </diagram>
    <diagram name="blue-inverse" id="74wSaLU7MYl7p-WBHxEV">
        <mxGraphModel dx="1188" dy="1572" grid="1" gridSize="10" guides="1" tooltips="1" connect="1" arrows="1" fold="1" page="0" pageScale="1" pageWidth="827" pageHeight="1169" background="none" math="0" shadow="0">
            <root>
                <mxCell id="yRXKW7D3_KJw_H2wrISQ-0"/>
                <mxCell id="yRXKW7D3_KJw_H2wrISQ-1" parent="yRXKW7D3_KJw_H2wrISQ-0"/>
                <mxCell id="yRXKW7D3_KJw_H2wrISQ-34" value="" style="rounded=0;whiteSpace=wrap;html=1;fillColor=#404040;fontColor=#333333;strokeColor=#8A8A8A;strokeWidth=3;" vertex="1" parent="yRXKW7D3_KJw_H2wrISQ-1">
                    <mxGeometry x="120" y="-30" width="1350" height="300" as="geometry"/>
                </mxCell>
                <mxCell id="yRXKW7D3_KJw_H2wrISQ-2" value="" style="rounded=0;whiteSpace=wrap;html=1;fillColor=#404040;fontColor=#333333;strokeColor=#8A8A8A;strokeWidth=3;" vertex="1" parent="yRXKW7D3_KJw_H2wrISQ-1">
                    <mxGeometry x="120" y="-30" width="1350" height="300" as="geometry"/>
                </mxCell>
                <mxCell id="yRXKW7D3_KJw_H2wrISQ-3" value="" style="rounded=0;whiteSpace=wrap;html=1;fillColor=#190E78;strokeColor=#2800F2;strokeWidth=4;movable=0;resizable=0;rotatable=0;deletable=0;editable=0;connectable=0;" vertex="1" parent="yRXKW7D3_KJw_H2wrISQ-1">
                    <mxGeometry x="120" y="270" width="1350" height="525" as="geometry"/>
                </mxCell>
                <mxCell id="yRXKW7D3_KJw_H2wrISQ-4" value="" style="rhombus;whiteSpace=wrap;html=1;fillColor=#5A45E0;strokeColor=#5F0D78;rotation=90;strokeWidth=3;" vertex="1" parent="yRXKW7D3_KJw_H2wrISQ-1">
                    <mxGeometry x="1287.5" y="100" width="120" height="40" as="geometry"/>
                </mxCell>
                <mxCell id="yRXKW7D3_KJw_H2wrISQ-5" value="" style="rhombus;whiteSpace=wrap;html=1;fillColor=#5A45E0;strokeColor=#5F0D78;rotation=90;strokeWidth=3;" vertex="1" parent="yRXKW7D3_KJw_H2wrISQ-1">
                    <mxGeometry x="1149.5" y="100" width="120" height="40" as="geometry"/>
                </mxCell>
                <mxCell id="yRXKW7D3_KJw_H2wrISQ-6" value="" style="rhombus;whiteSpace=wrap;html=1;fillColor=#5A45E0;strokeColor=#5F0D78;rotation=90;strokeWidth=3;" vertex="1" parent="yRXKW7D3_KJw_H2wrISQ-1">
                    <mxGeometry x="1011.5" y="100" width="120" height="40" as="geometry"/>
                </mxCell>
                <mxCell id="yRXKW7D3_KJw_H2wrISQ-7" value="" style="rhombus;whiteSpace=wrap;html=1;fillColor=#5A45E0;strokeColor=#5F0D78;rotation=90;strokeWidth=3;" vertex="1" parent="yRXKW7D3_KJw_H2wrISQ-1">
                    <mxGeometry x="873.5" y="100" width="120" height="40" as="geometry"/>
                </mxCell>
                <mxCell id="yRXKW7D3_KJw_H2wrISQ-8" value="" style="rhombus;whiteSpace=wrap;html=1;fillColor=#5A45E0;strokeColor=#5F0D78;rotation=90;strokeWidth=3;" vertex="1" parent="yRXKW7D3_KJw_H2wrISQ-1">
                    <mxGeometry x="734.5" y="100" width="120" height="40" as="geometry"/>
                </mxCell>
                <mxCell id="yRXKW7D3_KJw_H2wrISQ-9" value="" style="rhombus;whiteSpace=wrap;html=1;fillColor=#5A45E0;strokeColor=#5F0D78;rotation=90;strokeWidth=3;" vertex="1" parent="yRXKW7D3_KJw_H2wrISQ-1">
                    <mxGeometry x="596.5" y="100" width="120" height="40" as="geometry"/>
                </mxCell>
                <mxCell id="yRXKW7D3_KJw_H2wrISQ-10" value="" style="rhombus;whiteSpace=wrap;html=1;fillColor=#5A45E0;strokeColor=#5F0D78;rotation=90;strokeWidth=3;" vertex="1" parent="yRXKW7D3_KJw_H2wrISQ-1">
                    <mxGeometry x="458.5" y="100" width="120" height="40" as="geometry"/>
                </mxCell>
                <mxCell id="yRXKW7D3_KJw_H2wrISQ-11" value="" style="rhombus;whiteSpace=wrap;html=1;fillColor=#5A45E0;strokeColor=#5F0D78;rotation=90;strokeWidth=3;" vertex="1" parent="yRXKW7D3_KJw_H2wrISQ-1">
                    <mxGeometry x="320.5" y="100" width="120" height="40" as="geometry"/>
                </mxCell>
                <mxCell id="yRXKW7D3_KJw_H2wrISQ-12" value="" style="rhombus;whiteSpace=wrap;html=1;fillColor=#5A45E0;strokeColor=#5F0D78;rotation=90;strokeWidth=3;" vertex="1" parent="yRXKW7D3_KJw_H2wrISQ-1">
                    <mxGeometry x="182.5" y="100" width="120" height="40" as="geometry"/>
                </mxCell>
                <mxCell id="yRXKW7D3_KJw_H2wrISQ-13" value="" style="rhombus;whiteSpace=wrap;html=1;fillColor=#5A45E0;strokeColor=#5F0D78;strokeWidth=3;" vertex="1" parent="yRXKW7D3_KJw_H2wrISQ-1">
                    <mxGeometry x="341" y="447" width="120" height="40" as="geometry"/>
                </mxCell>
                <mxCell id="yRXKW7D3_KJw_H2wrISQ-14" value="" style="rhombus;whiteSpace=wrap;html=1;fillColor=#5A45E0;strokeColor=#5F0D78;strokeWidth=3;" vertex="1" parent="yRXKW7D3_KJw_H2wrISQ-1">
                    <mxGeometry x="537.5" y="447" width="120" height="40" as="geometry"/>
                </mxCell>
                <mxCell id="yRXKW7D3_KJw_H2wrISQ-15" value="" style="rhombus;whiteSpace=wrap;html=1;fillColor=#5A45E0;strokeColor=#5F0D78;strokeWidth=3;" vertex="1" parent="yRXKW7D3_KJw_H2wrISQ-1">
                    <mxGeometry x="734.5" y="447" width="120" height="40" as="geometry"/>
                </mxCell>
                <mxCell id="yRXKW7D3_KJw_H2wrISQ-16" value="" style="rhombus;whiteSpace=wrap;html=1;fillColor=#5A45E0;strokeColor=#5F0D78;strokeWidth=3;" vertex="1" parent="yRXKW7D3_KJw_H2wrISQ-1">
                    <mxGeometry x="931.5" y="447" width="120" height="40" as="geometry"/>
                </mxCell>
                <mxCell id="yRXKW7D3_KJw_H2wrISQ-17" value="" style="rhombus;whiteSpace=wrap;html=1;fillColor=#5A45E0;strokeColor=#5F0D78;strokeWidth=3;" vertex="1" parent="yRXKW7D3_KJw_H2wrISQ-1">
                    <mxGeometry x="1128" y="447" width="120" height="40" as="geometry"/>
                </mxCell>
                <mxCell id="yRXKW7D3_KJw_H2wrISQ-18" value="" style="rhombus;whiteSpace=wrap;html=1;fillColor=#5A45E0;strokeColor=#5F0D78;strokeWidth=3;" vertex="1" parent="yRXKW7D3_KJw_H2wrISQ-1">
                    <mxGeometry x="341" y="640" width="120" height="40" as="geometry"/>
                </mxCell>
                <mxCell id="yRXKW7D3_KJw_H2wrISQ-19" value="" style="rhombus;whiteSpace=wrap;html=1;fillColor=#5A45E0;strokeColor=#5F0D78;strokeWidth=3;" vertex="1" parent="yRXKW7D3_KJw_H2wrISQ-1">
                    <mxGeometry x="537.5" y="640" width="120" height="40" as="geometry"/>
                </mxCell>
                <mxCell id="yRXKW7D3_KJw_H2wrISQ-20" value="" style="rhombus;whiteSpace=wrap;html=1;fillColor=#5A45E0;strokeColor=#5F0D78;strokeWidth=3;" vertex="1" parent="yRXKW7D3_KJw_H2wrISQ-1">
                    <mxGeometry x="734.5" y="640" width="120" height="40" as="geometry"/>
                </mxCell>
                <mxCell id="yRXKW7D3_KJw_H2wrISQ-21" value="" style="rhombus;whiteSpace=wrap;html=1;fillColor=#5A45E0;strokeColor=#5F0D78;strokeWidth=3;" vertex="1" parent="yRXKW7D3_KJw_H2wrISQ-1">
                    <mxGeometry x="931.5" y="640" width="120" height="40" as="geometry"/>
                </mxCell>
                <mxCell id="h0CB1mTU5GmXKrzuanzx-0" value="" style="rounded=0;whiteSpace=wrap;html=1;fillColor=#190E78;strokeColor=#2800F2;strokeWidth=4;" vertex="1" parent="yRXKW7D3_KJw_H2wrISQ-1">
                    <mxGeometry x="120" y="270" width="1350" height="525" as="geometry"/>
                </mxCell>
                <mxCell id="yRXKW7D3_KJw_H2wrISQ-22" value="" style="rhombus;whiteSpace=wrap;html=1;fillColor=#5A45E0;strokeColor=#5F0D78;strokeWidth=3;" vertex="1" parent="yRXKW7D3_KJw_H2wrISQ-1">
                    <mxGeometry x="1128" y="640" width="120" height="40" as="geometry"/>
                </mxCell>
                <mxCell id="yRXKW7D3_KJw_H2wrISQ-23" value="" style="rhombus;whiteSpace=wrap;html=1;fillColor=#5A45E0;strokeColor=#5F0D78;strokeWidth=3;" vertex="1" parent="yRXKW7D3_KJw_H2wrISQ-1">
                    <mxGeometry x="243.5" y="543" width="120" height="40" as="geometry"/>
                </mxCell>
                <mxCell id="yRXKW7D3_KJw_H2wrISQ-24" value="" style="rhombus;whiteSpace=wrap;html=1;fillColor=#5A45E0;strokeColor=#5F0D78;strokeWidth=3;" vertex="1" parent="yRXKW7D3_KJw_H2wrISQ-1">
                    <mxGeometry x="440.5" y="543" width="120" height="40" as="geometry"/>
                </mxCell>
                <mxCell id="yRXKW7D3_KJw_H2wrISQ-25" value="" style="rhombus;whiteSpace=wrap;html=1;fillColor=#5A45E0;strokeColor=#5F0D78;strokeWidth=3;" vertex="1" parent="yRXKW7D3_KJw_H2wrISQ-1">
                    <mxGeometry x="637.5" y="543" width="120" height="40" as="geometry"/>
                </mxCell>
                <mxCell id="yRXKW7D3_KJw_H2wrISQ-26" value="" style="rhombus;whiteSpace=wrap;html=1;fillColor=#5A45E0;strokeColor=#5F0D78;strokeWidth=3;" vertex="1" parent="yRXKW7D3_KJw_H2wrISQ-1">
                    <mxGeometry x="833.5" y="543" width="120" height="40" as="geometry"/>
                </mxCell>
                <mxCell id="yRXKW7D3_KJw_H2wrISQ-27" value="" style="rhombus;whiteSpace=wrap;html=1;fillColor=#5A45E0;strokeColor=#5F0D78;strokeWidth=3;" vertex="1" parent="yRXKW7D3_KJw_H2wrISQ-1">
                    <mxGeometry x="1030.5" y="543" width="120" height="40" as="geometry"/>
                </mxCell>
                <mxCell id="yRXKW7D3_KJw_H2wrISQ-28" value="" style="rhombus;whiteSpace=wrap;html=1;fillColor=#5A45E0;strokeColor=#5F0D78;strokeWidth=3;" vertex="1" parent="yRXKW7D3_KJw_H2wrISQ-1">
                    <mxGeometry x="1227.5" y="543" width="120" height="40" as="geometry"/>
                </mxCell>
                <mxCell id="yRXKW7D3_KJw_H2wrISQ-29" value="" style="rounded=0;whiteSpace=wrap;html=1;fillColor=none;fontColor=#333333;strokeColor=none;flipH=1;strokeWidth=5;" vertex="1" parent="yRXKW7D3_KJw_H2wrISQ-1">
                    <mxGeometry x="1192.5" y="930" width="300" height="600" as="geometry"/>
                </mxCell>
                <mxCell id="yRXKW7D3_KJw_H2wrISQ-30" value="" style="rounded=0;whiteSpace=wrap;html=1;fillColor=none;fontColor=#333333;strokeColor=none;flipH=1;strokeWidth=5;" vertex="1" parent="yRXKW7D3_KJw_H2wrISQ-1">
                    <mxGeometry x="1192.5" y="930" width="170" height="600" as="geometry"/>
                </mxCell>
                <mxCell id="yRXKW7D3_KJw_H2wrISQ-31" value="" style="rounded=0;whiteSpace=wrap;html=1;fillColor=none;fontColor=#333333;strokeColor=none;flipH=1;strokeWidth=5;" vertex="1" parent="yRXKW7D3_KJw_H2wrISQ-1">
                    <mxGeometry x="1362.5" y="930" width="130" height="160" as="geometry"/>
                </mxCell>
                <mxCell id="yRXKW7D3_KJw_H2wrISQ-32" value="" style="rounded=0;whiteSpace=wrap;html=1;fillColor=none;fontColor=#333333;strokeColor=none;flipH=1;strokeWidth=5;" vertex="1" parent="yRXKW7D3_KJw_H2wrISQ-1">
                    <mxGeometry x="1362.5" y="1150" width="130" height="160" as="geometry"/>
                </mxCell>
                <mxCell id="yRXKW7D3_KJw_H2wrISQ-33" value="" style="rounded=0;whiteSpace=wrap;html=1;fillColor=none;fontColor=#333333;strokeColor=none;flipH=1;strokeWidth=5;" vertex="1" parent="yRXKW7D3_KJw_H2wrISQ-1">
                    <mxGeometry x="1362.5" y="1370" width="130" height="160" as="geometry"/>
                </mxCell>
                <mxCell id="yRXKW7D3_KJw_H2wrISQ-36" value="" style="group;flipH=0;fillColor=#404040;strokeColor=#FFFFFF;strokeWidth=5;" vertex="1" connectable="0" parent="yRXKW7D3_KJw_H2wrISQ-1">
                    <mxGeometry x="97.5" y="930" width="300" height="600" as="geometry"/>
                </mxCell>
                <mxCell id="yRXKW7D3_KJw_H2wrISQ-37" value="" style="rounded=0;whiteSpace=wrap;html=1;fillColor=#404040;fontColor=#333333;strokeColor=#FFFFFF;flipH=1;strokeWidth=5;" vertex="1" parent="yRXKW7D3_KJw_H2wrISQ-36">
                    <mxGeometry width="300" height="600" as="geometry"/>
                </mxCell>
                <mxCell id="yRXKW7D3_KJw_H2wrISQ-38" value="" style="rounded=0;whiteSpace=wrap;html=1;fillColor=#404040;fontColor=#333333;strokeColor=#FFFFFF;flipH=1;strokeWidth=5;" vertex="1" parent="yRXKW7D3_KJw_H2wrISQ-36">
                    <mxGeometry x="130" width="170" height="600" as="geometry"/>
                </mxCell>
                <mxCell id="yRXKW7D3_KJw_H2wrISQ-39" value="" style="rounded=0;whiteSpace=wrap;html=1;fillColor=#404040;fontColor=#333333;strokeColor=#FFFFFF;flipH=1;strokeWidth=5;" vertex="1" parent="yRXKW7D3_KJw_H2wrISQ-36">
                    <mxGeometry width="130" height="160" as="geometry"/>
                </mxCell>
                <mxCell id="yRXKW7D3_KJw_H2wrISQ-40" value="" style="rounded=0;whiteSpace=wrap;html=1;fillColor=#404040;fontColor=#333333;strokeColor=#FFFFFF;flipH=1;strokeWidth=5;" vertex="1" parent="yRXKW7D3_KJw_H2wrISQ-36">
                    <mxGeometry y="220" width="130" height="160" as="geometry"/>
                </mxCell>
                <mxCell id="yRXKW7D3_KJw_H2wrISQ-41" value="" style="rounded=0;whiteSpace=wrap;html=1;fillColor=#404040;fontColor=#333333;strokeColor=#FFFFFF;flipH=1;strokeWidth=5;" vertex="1" parent="yRXKW7D3_KJw_H2wrISQ-36">
                    <mxGeometry y="440" width="130" height="160" as="geometry"/>
                </mxCell>
                <mxCell id="yRXKW7D3_KJw_H2wrISQ-42" value="" style="rhombus;whiteSpace=wrap;html=1;fillColor=#5A45E0;strokeColor=#5F0D78;rotation=90;strokeWidth=3;" vertex="1" parent="yRXKW7D3_KJw_H2wrISQ-1">
                    <mxGeometry x="182.5" y="100" width="120" height="40" as="geometry"/>
                </mxCell>
                <mxCell id="yRXKW7D3_KJw_H2wrISQ-43" value="" style="rhombus;whiteSpace=wrap;html=1;fillColor=#5A45E0;strokeColor=#5F0D78;rotation=90;strokeWidth=3;" vertex="1" parent="yRXKW7D3_KJw_H2wrISQ-1">
                    <mxGeometry x="320.5" y="100" width="120" height="40" as="geometry"/>
                </mxCell>
                <mxCell id="yRXKW7D3_KJw_H2wrISQ-44" value="" style="rhombus;whiteSpace=wrap;html=1;fillColor=#5A45E0;strokeColor=#5F0D78;rotation=90;strokeWidth=3;" vertex="1" parent="yRXKW7D3_KJw_H2wrISQ-1">
                    <mxGeometry x="458.5" y="100" width="120" height="40" as="geometry"/>
                </mxCell>
                <mxCell id="yRXKW7D3_KJw_H2wrISQ-45" value="" style="rhombus;whiteSpace=wrap;html=1;fillColor=#5A45E0;strokeColor=#5F0D78;rotation=90;strokeWidth=3;" vertex="1" parent="yRXKW7D3_KJw_H2wrISQ-1">
                    <mxGeometry x="596.5" y="100" width="120" height="40" as="geometry"/>
                </mxCell>
                <mxCell id="yRXKW7D3_KJw_H2wrISQ-46" value="" style="rhombus;whiteSpace=wrap;html=1;fillColor=#5A45E0;strokeColor=#5F0D78;rotation=90;strokeWidth=3;" vertex="1" parent="yRXKW7D3_KJw_H2wrISQ-1">
                    <mxGeometry x="735.5" y="100" width="120" height="40" as="geometry"/>
                </mxCell>
                <mxCell id="yRXKW7D3_KJw_H2wrISQ-47" value="" style="rhombus;whiteSpace=wrap;html=1;fillColor=#5A45E0;strokeColor=#5F0D78;rotation=90;strokeWidth=3;" vertex="1" parent="yRXKW7D3_KJw_H2wrISQ-1">
                    <mxGeometry x="873.5" y="100" width="120" height="40" as="geometry"/>
                </mxCell>
                <mxCell id="yRXKW7D3_KJw_H2wrISQ-48" value="" style="rhombus;whiteSpace=wrap;html=1;fillColor=#5A45E0;strokeColor=#5F0D78;rotation=90;strokeWidth=3;" vertex="1" parent="yRXKW7D3_KJw_H2wrISQ-1">
                    <mxGeometry x="1011.5" y="100" width="120" height="40" as="geometry"/>
                </mxCell>
                <mxCell id="yRXKW7D3_KJw_H2wrISQ-49" value="" style="rhombus;whiteSpace=wrap;html=1;fillColor=#5A45E0;strokeColor=#5F0D78;rotation=90;strokeWidth=3;" vertex="1" parent="yRXKW7D3_KJw_H2wrISQ-1">
                    <mxGeometry x="1149.5" y="100" width="120" height="40" as="geometry"/>
                </mxCell>
                <mxCell id="yRXKW7D3_KJw_H2wrISQ-50" value="" style="rhombus;whiteSpace=wrap;html=1;fillColor=#5A45E0;strokeColor=#5F0D78;rotation=90;strokeWidth=3;" vertex="1" parent="yRXKW7D3_KJw_H2wrISQ-1">
                    <mxGeometry x="1287.5" y="100" width="120" height="40" as="geometry"/>
                </mxCell>
                <mxCell id="yRXKW7D3_KJw_H2wrISQ-51" value="" style="rhombus;whiteSpace=wrap;html=1;fillColor=#5A45E0;strokeColor=#5F0D78;strokeWidth=3;" vertex="1" parent="yRXKW7D3_KJw_H2wrISQ-1">
                    <mxGeometry x="1129" y="447" width="120" height="40" as="geometry"/>
                </mxCell>
                <mxCell id="yRXKW7D3_KJw_H2wrISQ-52" value="" style="rhombus;whiteSpace=wrap;html=1;fillColor=#5A45E0;strokeColor=#5F0D78;strokeWidth=3;" vertex="1" parent="yRXKW7D3_KJw_H2wrISQ-1">
                    <mxGeometry x="932.5" y="447" width="120" height="40" as="geometry"/>
                </mxCell>
                <mxCell id="yRXKW7D3_KJw_H2wrISQ-53" value="" style="rhombus;whiteSpace=wrap;html=1;fillColor=#5A45E0;strokeColor=#5F0D78;strokeWidth=3;" vertex="1" parent="yRXKW7D3_KJw_H2wrISQ-1">
                    <mxGeometry x="735.5" y="447" width="120" height="40" as="geometry"/>
                </mxCell>
                <mxCell id="yRXKW7D3_KJw_H2wrISQ-54" value="" style="rhombus;whiteSpace=wrap;html=1;fillColor=#5A45E0;strokeColor=#5F0D78;strokeWidth=3;" vertex="1" parent="yRXKW7D3_KJw_H2wrISQ-1">
                    <mxGeometry x="538.5" y="447" width="120" height="40" as="geometry"/>
                </mxCell>
                <mxCell id="yRXKW7D3_KJw_H2wrISQ-55" value="" style="rhombus;whiteSpace=wrap;html=1;fillColor=#5A45E0;strokeColor=#5F0D78;strokeWidth=3;" vertex="1" parent="yRXKW7D3_KJw_H2wrISQ-1">
                    <mxGeometry x="342" y="447" width="120" height="40" as="geometry"/>
                </mxCell>
                <mxCell id="yRXKW7D3_KJw_H2wrISQ-56" value="" style="rhombus;whiteSpace=wrap;html=1;fillColor=#5A45E0;strokeColor=#5F0D78;strokeWidth=3;" vertex="1" parent="yRXKW7D3_KJw_H2wrISQ-1">
                    <mxGeometry x="1129" y="640" width="120" height="40" as="geometry"/>
                </mxCell>
                <mxCell id="yRXKW7D3_KJw_H2wrISQ-57" value="" style="rhombus;whiteSpace=wrap;html=1;fillColor=#5A45E0;strokeColor=#5F0D78;strokeWidth=3;" vertex="1" parent="yRXKW7D3_KJw_H2wrISQ-1">
                    <mxGeometry x="932.5" y="640" width="120" height="40" as="geometry"/>
                </mxCell>
                <mxCell id="yRXKW7D3_KJw_H2wrISQ-58" value="" style="rhombus;whiteSpace=wrap;html=1;fillColor=#5A45E0;strokeColor=#5F0D78;strokeWidth=3;" vertex="1" parent="yRXKW7D3_KJw_H2wrISQ-1">
                    <mxGeometry x="735.5" y="640" width="120" height="40" as="geometry"/>
                </mxCell>
                <mxCell id="yRXKW7D3_KJw_H2wrISQ-59" value="" style="rhombus;whiteSpace=wrap;html=1;fillColor=#5A45E0;strokeColor=#5F0D78;strokeWidth=3;" vertex="1" parent="yRXKW7D3_KJw_H2wrISQ-1">
                    <mxGeometry x="538.5" y="640" width="120" height="40" as="geometry"/>
                </mxCell>
                <mxCell id="yRXKW7D3_KJw_H2wrISQ-60" value="" style="rhombus;whiteSpace=wrap;html=1;fillColor=#5A45E0;strokeColor=#5F0D78;strokeWidth=3;" vertex="1" parent="yRXKW7D3_KJw_H2wrISQ-1">
                    <mxGeometry x="342" y="640" width="120" height="40" as="geometry"/>
                </mxCell>
                <mxCell id="yRXKW7D3_KJw_H2wrISQ-61" value="" style="rhombus;whiteSpace=wrap;html=1;fillColor=#5A45E0;strokeColor=#5F0D78;strokeWidth=3;" vertex="1" parent="yRXKW7D3_KJw_H2wrISQ-1">
                    <mxGeometry x="1226.5" y="543" width="120" height="40" as="geometry"/>
                </mxCell>
                <mxCell id="yRXKW7D3_KJw_H2wrISQ-62" value="" style="rhombus;whiteSpace=wrap;html=1;fillColor=#5A45E0;strokeColor=#5F0D78;strokeWidth=3;" vertex="1" parent="yRXKW7D3_KJw_H2wrISQ-1">
                    <mxGeometry x="1029.5" y="543" width="120" height="40" as="geometry"/>
                </mxCell>
                <mxCell id="yRXKW7D3_KJw_H2wrISQ-63" value="" style="rhombus;whiteSpace=wrap;html=1;fillColor=#5A45E0;strokeColor=#5F0D78;strokeWidth=3;" vertex="1" parent="yRXKW7D3_KJw_H2wrISQ-1">
                    <mxGeometry x="832.5" y="543" width="120" height="40" as="geometry"/>
                </mxCell>
                <mxCell id="yRXKW7D3_KJw_H2wrISQ-64" value="" style="rhombus;whiteSpace=wrap;html=1;fillColor=#5A45E0;strokeColor=#5F0D78;strokeWidth=3;" vertex="1" parent="yRXKW7D3_KJw_H2wrISQ-1">
                    <mxGeometry x="636.5" y="543" width="120" height="40" as="geometry"/>
                </mxCell>
                <mxCell id="yRXKW7D3_KJw_H2wrISQ-65" value="" style="rhombus;whiteSpace=wrap;html=1;fillColor=#5A45E0;strokeColor=#5F0D78;strokeWidth=3;" vertex="1" parent="yRXKW7D3_KJw_H2wrISQ-1">
                    <mxGeometry x="439.5" y="543" width="120" height="40" as="geometry"/>
                </mxCell>
                <mxCell id="yRXKW7D3_KJw_H2wrISQ-66" value="" style="rhombus;whiteSpace=wrap;html=1;fillColor=#5A45E0;strokeColor=#5F0D78;strokeWidth=3;" vertex="1" parent="yRXKW7D3_KJw_H2wrISQ-1">
                    <mxGeometry x="242.5" y="543" width="120" height="40" as="geometry"/>
                </mxCell>
            </root>
        </mxGraphModel>
    </diagram>
</mxfile>